<svg width="859" height="87" viewBox="0 0 859 87" fill="none" xmlns="http://www.w3.org/2000/svg">
<rect x="80.4334" y="5.13257" width="40.2167" height="80.4334" transform="rotate(90 80.4334 5.13257)" fill="black"/>
<rect x="140.758" y="5.13257" width="40.2167" height="20.1083" transform="rotate(90 140.758 5.13257)" fill="black"/>
<rect x="172.038" y="5.13257" width="40.2167" height="11.1713" transform="rotate(90 172.038 5.13257)" fill="black"/>
<rect x="120.65" y="45.3492" width="40.2167" height="40.2167" transform="rotate(90 120.65 45.3492)" fill="black"/>
<rect x="160.867" y="45.3492" width="40.2167" height="20.1083" transform="rotate(90 160.867 45.3492)" fill="black"/>
<path d="M832.721 86.1732C826.735 86.1732 821.881 84.1658 818.158 80.151C814.508 76.1361 812.683 70.6978 812.683 63.8361V46.2072C812.683 39.2725 814.508 33.7977 818.158 29.7828C821.808 25.768 826.662 23.7606 832.721 23.7606C837.685 23.7606 841.663 25.111 844.656 27.8119C847.649 30.5128 849.145 34.1262 849.145 38.652L847.174 36.3526H849.364L849.145 22.6656V5.14624H859V85.0783H849.145V73.5812H847.174L849.145 71.2818C849.145 75.8806 847.649 79.5305 844.656 82.2314C841.663 84.8593 837.685 86.1732 832.721 86.1732ZM836.006 77.6326C840.094 77.6326 843.306 76.3551 845.641 73.8002C847.977 71.2453 849.145 67.7049 849.145 63.1791V46.7547C849.145 42.2289 847.977 38.6885 845.641 36.1336C843.306 33.5787 840.094 32.3012 836.006 32.3012C831.845 32.3012 828.56 33.5422 826.151 36.0241C823.742 38.506 822.538 42.0829 822.538 46.7547V63.1791C822.538 67.8509 823.742 71.4278 826.151 73.9097C828.56 76.3916 831.845 77.6326 836.006 77.6326Z" fill="black"/>
<path d="M765.314 86.1733C758.964 86.1733 753.963 84.5674 750.313 81.3555C746.664 78.0706 744.839 73.6543 744.839 68.1065C744.839 62.4857 746.664 58.0694 750.313 54.8575C753.963 51.6456 758.891 50.0396 765.095 50.0396H783.71V44.0174C783.71 40.2945 782.578 37.4476 780.315 35.4767C778.125 33.4328 774.987 32.4108 770.899 32.4108C767.322 32.4108 764.329 33.1773 761.92 34.7102C759.511 36.1702 758.124 38.1776 757.759 40.7325H747.905C748.562 35.5497 751.007 31.4253 755.241 28.3594C759.475 25.2936 764.767 23.7606 771.118 23.7606C778.052 23.7606 783.527 25.5491 787.542 29.1259C791.557 32.7028 793.564 37.5571 793.564 43.6889V85.0784H783.929V73.5813H782.286L783.929 71.9388C783.929 76.3187 782.213 79.7861 778.782 82.341C775.425 84.8959 770.935 86.1733 765.314 86.1733ZM767.723 78.3991C772.395 78.3991 776.228 77.2311 779.22 74.8952C782.213 72.5593 783.71 69.5664 783.71 65.9166V57.3759H765.314C762.03 57.3759 759.438 58.2883 757.54 60.1133C755.642 61.9382 754.693 64.4201 754.693 67.559C754.693 70.9169 755.825 73.5813 758.088 75.5522C760.424 77.4501 763.635 78.3991 767.723 78.3991Z" fill="black"/>
<path d="M713.128 85.0783C709.624 85.0783 706.558 84.3848 703.93 82.9979C701.302 81.6109 699.258 79.64 697.798 77.0851C696.338 74.5302 695.608 71.5373 695.608 68.1064V14.1249H675.352V5.14624H705.463V68.1064C705.463 70.5883 706.156 72.5592 707.543 74.0192C708.93 75.4061 710.792 76.0996 713.128 76.0996H732.289V85.0783H713.128Z" fill="black"/>
<path d="M639.698 86.1733C634.88 86.1733 630.646 85.2608 626.997 83.4359C623.42 81.611 620.646 78.9831 618.675 75.5522C616.704 72.0483 615.718 67.924 615.718 63.1792V46.7548C615.718 41.9369 616.704 37.8126 618.675 34.3817C620.646 30.9508 623.42 28.3229 626.997 26.498C630.646 24.6731 634.88 23.7606 639.698 23.7606C646.633 23.7606 652.217 25.6221 656.451 29.3449C660.685 33.0678 662.911 38.1411 663.13 44.5649H653.276C653.057 40.696 651.743 37.7396 649.334 35.6957C646.998 33.5788 643.786 32.5203 639.698 32.5203C635.391 32.5203 631.96 33.7613 629.405 36.2432C626.851 38.6521 625.573 42.1194 625.573 46.6453V63.1792C625.573 67.705 626.851 71.2089 629.405 73.6908C631.96 76.1727 635.391 77.4136 639.698 77.4136C643.786 77.4136 646.998 76.3552 649.334 74.2383C651.743 72.1213 653.057 69.1649 653.276 65.3691H663.13C662.911 71.7928 660.685 76.8662 656.451 80.589C652.217 84.3119 646.633 86.1733 639.698 86.1733Z" fill="black"/>
<path d="M568.35 86.1733C561.999 86.1733 556.999 84.5674 553.349 81.3555C549.699 78.0706 547.874 73.6543 547.874 68.1065C547.874 62.4857 549.699 58.0694 553.349 54.8575C556.999 51.6456 561.926 50.0396 568.131 50.0396H586.745V44.0174C586.745 40.2945 585.614 37.4476 583.351 35.4767C581.161 33.4328 578.022 32.4108 573.934 32.4108C570.357 32.4108 567.364 33.1773 564.955 34.7102C562.547 36.1702 561.16 38.1776 560.795 40.7325H550.94C551.597 35.5497 554.042 31.4253 558.276 28.3594C562.51 25.2936 567.802 23.7606 574.153 23.7606C581.088 23.7606 586.563 25.5491 590.577 29.1259C594.592 32.7028 596.6 37.5571 596.6 43.6889V85.0784H586.964V73.5813H585.322L586.964 71.9388C586.964 76.3187 585.249 79.7861 581.818 82.341C578.46 84.8959 573.971 86.1733 568.35 86.1733ZM570.759 78.3991C575.431 78.3991 579.263 77.2311 582.256 74.8952C585.249 72.5593 586.745 69.5664 586.745 65.9166V57.3759H568.35C565.065 57.3759 562.474 58.2883 560.576 60.1133C558.678 61.9382 557.729 64.4201 557.729 67.559C557.729 70.9169 558.86 73.5813 561.123 75.5522C563.459 77.4501 566.671 78.3991 570.759 78.3991Z" fill="black"/>
<path d="M482.329 85.0784V24.8556H490.979V32.0823H492.95L491.417 34.7102C491.417 31.3523 492.293 28.6879 494.045 26.717C495.87 24.7461 498.315 23.7606 501.381 23.7606C504.739 23.7606 507.33 25.0016 509.155 27.4835C510.98 29.9654 511.893 33.4693 511.893 37.9951L508.936 32.0823H513.535L511.455 34.7102C511.455 31.3523 512.367 28.6879 514.192 26.717C516.09 24.7461 518.572 23.7606 521.638 23.7606C525.434 23.7606 528.354 25.1841 530.398 28.031C532.514 30.8779 533.573 34.6372 533.573 39.309V85.0784H524.485V39.1995C524.485 36.7176 523.937 34.7832 522.842 33.3963C521.82 32.0093 520.287 31.3158 518.244 31.3158C516.273 31.3158 514.703 32.0093 513.535 33.3963C512.44 34.7102 511.893 36.6081 511.893 39.0901V85.0784H504.009V39.1995C504.009 36.6446 503.425 34.7102 502.257 33.3963C501.162 32.0093 499.593 31.3158 497.549 31.3158C495.505 31.3158 493.972 32.0093 492.95 33.3963C491.928 34.7102 491.417 36.6081 491.417 39.0901V85.0784H482.329Z" fill="black"/>
<path d="M440.435 85.9547C436.347 85.9547 432.77 85.3342 429.704 84.0933C426.711 82.7793 424.302 80.9544 422.477 78.6185C420.725 76.2825 419.667 73.5087 419.302 70.2968H429.157C429.595 72.4137 430.762 74.0926 432.66 75.3336C434.631 76.5745 437.223 77.195 440.435 77.195H445.033C448.902 77.195 451.786 76.4285 453.684 74.8956C455.582 73.2897 456.531 71.1727 456.531 68.5448C456.531 65.9899 455.655 63.9825 453.903 62.5226C452.224 60.9896 449.705 59.9676 446.347 59.4567L438.245 58.1427C432.332 57.1208 427.916 55.2958 424.996 52.6679C422.149 49.967 420.725 46.0617 420.725 40.9519C420.725 35.5501 422.441 31.3892 425.872 28.4693C429.303 25.4764 434.449 23.98 441.311 23.98H445.471C451.238 23.98 455.874 25.3304 459.377 28.0313C462.881 30.7322 464.998 34.3821 465.728 38.9809H455.874C455.436 37.083 454.341 35.5866 452.589 34.4916C450.837 33.3236 448.464 32.7397 445.471 32.7397H441.311C437.588 32.7397 434.85 33.4331 433.098 34.8201C431.419 36.207 430.58 38.2875 430.58 41.0613C430.58 43.5433 431.31 45.3682 432.77 46.5361C434.23 47.7041 436.529 48.5436 439.668 49.0546L447.771 50.3685C454.268 51.3905 458.976 53.2884 461.896 56.0623C464.889 58.8362 466.385 62.851 466.385 68.1069C466.385 73.6546 464.597 78.0345 461.02 81.2464C457.516 84.3852 452.187 85.9547 445.033 85.9547H440.435Z" fill="black"/>
<path d="M353.099 85.0784V76.0997H374.451V33.8342H355.837V24.8556H384.306V76.0997H404.563V85.0784H353.099ZM378.284 14.0155C375.875 14.0155 373.977 13.395 372.59 12.1541C371.203 10.9131 370.509 9.23416 370.509 7.11724C370.509 4.92732 371.203 3.21188 372.59 1.97092C373.977 0.656974 375.875 0 378.284 0C380.692 0 382.59 0.656974 383.977 1.97092C385.364 3.21188 386.058 4.92732 386.058 7.11724C386.058 9.23416 385.364 10.9131 383.977 12.1541C382.59 13.395 380.692 14.0155 378.284 14.0155Z" fill="black"/>
<path d="M290.292 85.0784V24.8556H299.927V36.3526H302.227L299.051 43.4699C299.051 36.9731 300.438 32.0823 303.212 28.7974C306.059 25.4396 310.256 23.7606 315.804 23.7606C322.155 23.7606 327.192 25.768 330.915 29.7829C334.71 33.7247 336.608 39.09 336.608 45.8788V49.4922H326.754V46.7548C326.754 42.0099 325.586 38.3966 323.25 35.9147C320.987 33.3598 317.739 32.0823 313.505 32.0823C309.344 32.0823 306.059 33.3598 303.65 35.9147C301.314 38.4696 300.146 42.0829 300.146 46.7548V85.0784H290.292Z" fill="black"/>
<path d="M222.556 85.0783V5.14624H248.288C253.252 5.14624 257.559 6.1317 261.208 8.10263C264.858 10.0006 267.669 12.7015 269.64 16.2053C271.684 19.7092 272.706 23.87 272.706 28.6879C272.706 33.4327 271.684 37.5935 269.64 41.1704C267.669 44.6743 264.858 47.4117 261.208 49.3826C257.559 51.2805 253.252 52.2295 248.288 52.2295H232.411V85.0783H222.556ZM232.411 43.3603H248.288C252.595 43.3603 256.026 42.0464 258.581 39.4185C261.208 36.7176 262.522 33.1407 262.522 28.6879C262.522 24.162 261.208 20.5852 258.581 17.9573C256.026 15.3294 252.595 14.0154 248.288 14.0154H232.411V43.3603Z" fill="black"/>
</svg>
