<svg width="260" height="36" viewBox="0 0 260 36" fill="none" xmlns="http://www.w3.org/2000/svg">
<path d="M233.877 22.2567C233.877 19.7536 234.39 17.537 235.415 15.6068C236.471 13.6767 237.888 12.1839 239.668 11.1283C241.477 10.0426 243.483 9.49978 245.684 9.49978C247.313 9.49978 248.911 9.86168 250.479 10.5855C252.078 11.2791 253.345 12.214 254.279 13.3902V1.35706H259.482V34.8327H254.279V31.078C253.435 32.2843 252.259 33.2796 250.751 34.0637C249.273 34.8478 247.569 35.2399 245.639 35.2399C243.468 35.2399 241.477 34.697 239.668 33.6113C237.888 32.4954 236.471 30.9574 235.415 28.9971C234.39 27.0066 233.877 24.7599 233.877 22.2567ZM254.279 22.3472C254.279 20.6282 253.918 19.1353 253.194 17.8687C252.5 16.6021 251.58 15.637 250.434 14.9735C249.288 14.31 248.052 13.9783 246.725 13.9783C245.398 13.9783 244.161 14.31 243.015 14.9735C241.869 15.6068 240.934 16.5568 240.211 17.8235C239.517 19.0599 239.17 20.5377 239.17 22.2567C239.17 23.9757 239.517 25.4837 240.211 26.7805C240.934 28.0773 241.869 29.0725 243.015 29.7661C244.192 30.4296 245.428 30.7614 246.725 30.7614C248.052 30.7614 249.288 30.4296 250.434 29.7661C251.58 29.1026 252.5 28.1376 253.194 26.8709C253.918 25.5741 254.279 24.0662 254.279 22.3472Z" fill="white"/>
<path d="M203.218 22.2568C203.218 19.7537 203.731 17.5371 204.757 15.6069C205.812 13.6768 207.229 12.184 209.009 11.1284C210.818 10.0427 212.809 9.49988 214.98 9.49988C216.94 9.49988 218.644 9.89194 220.092 10.676C221.57 11.43 222.746 12.38 223.62 13.526V9.90702H228.823V34.8328H223.62V31.1233C222.746 32.2995 221.555 33.2797 220.047 34.0638C218.539 34.8479 216.82 35.2399 214.89 35.2399C212.748 35.2399 210.788 34.6971 209.009 33.6114C207.229 32.4955 205.812 30.9575 204.757 28.9972C203.731 27.0067 203.218 24.76 203.218 22.2568ZM223.62 22.3473C223.62 20.6283 223.259 19.1354 222.535 17.8688C221.841 16.6021 220.921 15.6371 219.775 14.9736C218.629 14.3101 217.393 13.9784 216.066 13.9784C214.739 13.9784 213.502 14.3101 212.356 14.9736C211.21 15.6069 210.275 16.5569 209.552 17.8236C208.858 19.06 208.511 20.5378 208.511 22.2568C208.511 23.9758 208.858 25.4838 209.552 26.7806C210.275 28.0774 211.21 29.0726 212.356 29.7662C213.533 30.4297 214.769 30.7614 216.066 30.7614C217.393 30.7614 218.629 30.4297 219.775 29.7662C220.921 29.1027 221.841 28.1377 222.535 26.871C223.259 25.5742 223.62 24.0663 223.62 22.3473Z" fill="white"/>
<path d="M198.167 1.35706V34.8327H193.01V1.35706H198.167Z" fill="white"/>
<path d="M156.302 19.0449C156.302 15.9688 157.011 13.2093 158.429 10.7665C159.876 8.32367 161.821 6.4237 164.264 5.06658C166.737 3.6793 169.436 2.98566 172.362 2.98566C175.709 2.98566 178.68 3.81501 181.273 5.47371C183.897 7.10226 185.797 9.42444 186.973 12.4403H180.776C179.962 10.7816 178.831 9.54508 177.383 8.73081C175.935 7.91653 174.262 7.5094 172.362 7.5094C170.281 7.5094 168.426 7.97685 166.797 8.91175C165.169 9.84666 163.887 11.1887 162.952 12.9379C162.048 14.6871 161.595 16.7227 161.595 19.0449C161.595 21.3671 162.048 23.4028 162.952 25.152C163.887 26.9012 165.169 28.2583 166.797 29.2233C168.426 30.1582 170.281 30.6257 172.362 30.6257C174.262 30.6257 175.935 30.2186 177.383 29.4043C178.831 28.59 179.962 27.3535 180.776 25.6948H186.973C185.797 28.7106 183.897 31.0328 181.273 32.6614C178.68 34.2899 175.709 35.1042 172.362 35.1042C169.406 35.1042 166.707 34.4256 164.264 33.0685C161.821 31.6812 159.876 29.7662 158.429 27.3234C157.011 24.8805 156.302 22.1211 156.302 19.0449Z" fill="white"/>
<path d="M125.643 22.2568C125.643 19.7537 126.156 17.5371 127.182 15.6069C128.237 13.6768 129.654 12.184 131.434 11.1284C133.243 10.0427 135.234 9.49988 137.405 9.49988C139.365 9.49988 141.069 9.89194 142.517 10.676C143.995 11.43 145.171 12.38 146.045 13.526V9.90702H151.248V34.8328H146.045V31.1233C145.171 32.2995 143.98 33.2797 142.472 34.0638C140.964 34.8479 139.245 35.2399 137.315 35.2399C135.173 35.2399 133.213 34.6971 131.434 33.6114C129.654 32.4955 128.237 30.9575 127.182 28.9972C126.156 27.0067 125.643 24.76 125.643 22.2568ZM146.045 22.3473C146.045 20.6283 145.684 19.1354 144.96 17.8688C144.266 16.6021 143.346 15.6371 142.2 14.9736C141.054 14.3101 139.818 13.9784 138.491 13.9784C137.164 13.9784 135.927 14.3101 134.781 14.9736C133.635 15.6069 132.7 16.5569 131.977 17.8236C131.283 19.06 130.936 20.5378 130.936 22.2568C130.936 23.9758 131.283 25.4838 131.977 26.7806C132.7 28.0774 133.635 29.0726 134.781 29.7662C135.958 30.4297 137.194 30.7614 138.491 30.7614C139.818 30.7614 141.054 30.4297 142.2 29.7662C143.346 29.1027 144.266 28.1377 144.96 26.871C145.684 25.5742 146.045 24.0663 146.045 22.3473Z" fill="white"/>
<path d="M110.532 9.49988C112.492 9.49988 114.241 9.90701 115.779 10.7213C117.347 11.5356 118.569 12.7419 119.443 14.3403C120.348 15.9387 120.8 17.8688 120.8 20.1307V34.8328H115.689V20.8997C115.689 18.668 115.131 16.964 114.015 15.7879C112.899 14.5815 111.376 13.9784 109.446 13.9784C107.516 13.9784 105.978 14.5815 104.832 15.7879C103.716 16.964 103.158 18.668 103.158 20.8997V34.8328H98.046V20.8997C98.046 18.668 97.4881 16.964 96.3722 15.7879C95.2564 14.5815 93.7334 13.9784 91.8033 13.9784C89.8731 13.9784 88.3351 14.5815 87.1891 15.7879C86.0732 16.964 85.5153 18.668 85.5153 20.8997V34.8328H80.3582V9.90702H85.5153V12.757C86.3597 11.7316 87.4303 10.9324 88.7271 10.3594C90.0239 9.78638 91.4112 9.49988 92.889 9.49988C94.8794 9.49988 96.6587 9.9221 98.227 10.7665C99.7952 11.611 101.002 12.8324 101.846 14.4308C102.6 12.9228 103.776 11.7316 105.374 10.857C106.973 9.95225 108.692 9.49988 110.532 9.49988Z" fill="white"/>
<path d="M65.2406 35.2399C63.2803 35.2399 61.5161 34.8931 59.9478 34.1995C58.4098 33.4757 57.1883 32.5106 56.2836 31.3043C55.3788 30.0678 54.8963 28.6956 54.836 27.1877H60.174C60.2645 28.2432 60.7621 29.1329 61.6668 29.8567C62.6017 30.5503 63.7628 30.8972 65.1501 30.8972C66.5977 30.8972 67.7136 30.6257 68.4977 30.0829C69.312 29.5099 69.7191 28.7861 69.7191 27.9115C69.7191 26.9766 69.2667 26.2829 68.362 25.8306C67.4874 25.3782 66.085 24.8806 64.1549 24.3377C62.2851 23.825 60.7621 23.3274 59.5859 22.8449C58.4097 22.3624 57.3844 21.6235 56.5098 20.6283C55.6654 19.6331 55.2431 18.3212 55.2431 16.6926C55.2431 15.3657 55.6352 14.1593 56.4193 13.0736C57.2034 11.9578 58.3193 11.0832 59.7669 10.4499C61.2446 9.81654 62.9335 9.49988 64.8335 9.49988C67.6683 9.49988 69.9453 10.2237 71.6643 11.6713C73.4135 13.0887 74.3484 15.0339 74.469 17.5069H69.312C69.2215 16.391 68.7691 15.5014 67.9548 14.8379C67.1406 14.1744 66.0398 13.8427 64.6525 13.8427C63.2954 13.8427 62.2549 14.099 61.5311 14.6117C60.8073 15.1244 60.4454 15.803 60.4454 16.6474C60.4454 17.3109 60.6867 17.8688 61.1692 18.3212C61.6518 18.7735 62.2398 19.1354 62.9335 19.4069C63.6271 19.6481 64.6525 19.9648 66.0096 20.3568C67.8191 20.8394 69.2969 21.337 70.4429 21.8497C71.6191 22.3322 72.6294 23.056 73.4738 24.0211C74.3182 24.9861 74.7555 26.2679 74.7857 27.8663C74.7857 29.2837 74.3936 30.5503 73.6095 31.6662C72.8254 32.782 71.7095 33.6566 70.2619 34.29C68.8445 34.9233 67.1707 35.2399 65.2406 35.2399Z" fill="white"/>
<path d="M46.8891 6.60466C45.9542 6.60466 45.17 6.288 44.5367 5.65467C43.9034 5.02135 43.5867 4.23724 43.5867 3.30233C43.5867 2.36742 43.9034 1.58331 44.5367 0.949987C45.17 0.316663 45.9542 0 46.8891 0C47.7938 0 48.5628 0.316663 49.1962 0.949987C49.8295 1.58331 50.1461 2.36742 50.1461 3.30233C50.1461 4.23724 49.8295 5.02135 49.1962 5.65467C48.5628 6.288 47.7938 6.60466 46.8891 6.60466ZM49.4224 9.90699V34.8328H44.2653V9.90699H49.4224Z" fill="white"/>
<path d="M32.0609 13.526C32.8149 12.2594 33.8101 11.2792 35.0466 10.5856C36.3132 9.86178 37.8061 9.49988 39.5251 9.49988V14.8379H38.2132C36.1926 14.8379 34.6545 15.3506 33.599 16.376C32.5736 17.4013 32.0609 19.1807 32.0609 21.714V34.8328H26.9039V9.90702H32.0609V13.526Z" fill="white"/>
<path d="M21.9854 12.7568C21.9854 14.3552 21.6084 15.8631 20.8544 17.2805C20.1005 18.698 18.8941 19.859 17.2354 20.7638C15.5767 21.6384 13.4506 22.0757 10.857 22.0757H5.15706V34.8326H0V3.39264H10.857C13.2696 3.39264 15.3053 3.81485 16.964 4.65929C18.6529 5.47356 19.9044 6.58941 20.7187 8.00685C21.5632 9.42429 21.9854 11.0076 21.9854 12.7568ZM10.857 17.8686C12.8173 17.8686 14.2799 17.4313 15.245 16.5567C16.2101 15.652 16.6926 14.3853 16.6926 12.7568C16.6926 9.31874 14.7474 7.59971 10.857 7.59971H5.15706V17.8686H10.857Z" fill="white"/>
</svg>
