<svg width="876" height="211" viewBox="0 0 876 211" fill="none" xmlns="http://www.w3.org/2000/svg">
<path d="M572.526 206.878H543.292L543.285 185.012C520.471 214.738 480.105 216.258 448.913 199.458C384.161 157.771 412.413 51.0945 492.11 54.7842C514.185 55.8062 527.682 62.8352 542.718 78.6592C543.255 53.0302 542.812 25.8311 542.831 0.0751953L572.566 0L572.526 206.878ZM545.089 130.999C544.382 102.464 520.618 79.937 492.086 80.7578C463.714 81.5728 441.341 105.176 442.044 133.551C442.747 161.926 466.259 184.392 494.637 183.803C523.175 183.21 545.796 159.535 545.089 130.999Z" fill="#040403"/>
<path d="M681.236 55.0398C698.797 54.7248 719.556 58.3073 732.655 71.0983C751.315 89.3294 747.645 118.782 747.615 142.941L747.535 206.888L719.975 206.858L719.984 186.591C692.523 219.758 624.915 221.638 611.299 174.659C603.024 111.894 677.892 118.608 718.298 118.791C718.449 109.713 719.056 102.345 714.237 94.0593C703.776 76.0704 675.035 75.5391 658.633 84.696C650.487 89.245 647.509 94.714 645.364 103.487C635.367 103.548 625.369 103.495 615.373 103.329C621.862 68.6049 644.203 57.5163 677.692 55.1423C678.873 55.0953 680.054 55.0608 681.236 55.0398ZM718.449 139.442C704.215 139.46 689.809 139.325 675.607 140.063C664.572 141.306 653.03 142.58 645.408 151.698C637.912 160.664 640.293 173.339 649.538 180.005C659.562 187.232 672.206 186.665 683.861 185.271C709.899 178.417 718.864 166.155 718.449 139.442Z" fill="#040403"/>
<path d="M309.827 55.1313C351.695 55.5844 379.631 82.2868 382.153 124.366C382.467 129.601 382.248 135.096 382.17 140.35L260.625 140.4C262.859 153.901 266.088 164.941 276.451 173.795C297.636 191.897 330.632 189.388 347.221 166.318C349.301 163.425 350.812 163.966 353.905 163.791L378.099 163.94C364.769 214.328 292.244 223.387 256.541 191.797C224.555 164.647 221.354 110.897 249.353 79.7436C265.082 62.2406 283.519 56.5177 306.408 55.1557C307.548 55.1277 308.687 55.1193 309.827 55.1313ZM352.531 118.965C346.808 89.2124 330.416 76.729 299.688 79.9819C277.463 84.9549 265.318 96.0988 261.212 118.859L316.405 118.925L352.531 118.965Z" fill="#040403"/>
<path d="M92.7204 1.04593C142.844 -2.79507 187.153 18.3869 197.827 70.6619L166 70.7469C159.923 52.0509 147.814 37.5549 128.594 31.8419C30.0514 2.55389 -8.05862 146.656 82.0564 179.189C100.639 185.898 123.923 182.166 141.189 172.611C154.458 163.713 160.457 155.126 166.017 140.416L198.069 140.347C181.228 212.418 93.8384 229.358 38.6144 189.138C-6.45161 156.306 -12.2256 80.5999 22.1054 38.3149C40.7484 15.3519 63.4344 4.63793 92.7204 1.04593Z" fill="#040403"/>
<path d="M860.225 55.9581C864.415 55.4551 870.665 55.5701 875.035 55.5281L875.065 82.9431L871.585 82.9181C821.055 82.7841 823.465 113.654 823.455 153.225L823.435 206.938C817.835 206.988 797.805 207.778 794.135 205.508L794.095 58.0181L823.345 57.998L823.575 78.2801C834.755 64.2301 842.865 59.7151 860.225 55.9581Z" fill="#040403"/>
</svg>
