<svg width="565" height="165" viewBox="0 0 565 165" fill="none" xmlns="http://www.w3.org/2000/svg">
<path fill-rule="evenodd" clip-rule="evenodd" d="M34.2119 1.10678C56.0899 1.07227 84.1506 -0.240556 101.562 15.2484C110.42 23.2827 115.183 34.5009 115.573 46.389C116.907 86.992 90.6536 100.083 54.5977 101.698C48.2727 101.968 41.8092 101.882 35.4697 101.882L35.501 162.558C23.6817 162.663 11.8618 162.698 0.0419922 162.653L0 1.18295L34.2119 1.10678ZM78.3643 44.9115C77.7913 10.8085 63.571 9.62424 35.2705 10.1292C35.5585 37.1866 35.7013 65.5759 35.4473 92.6478C46.2417 93.0378 60.8038 94.3921 69.2998 86.5872C69.8478 86.0823 70.3847 85.5675 70.9092 85.0326C78.7992 73.6376 78.5868 58.1819 78.3643 44.9115Z" fill="black"/>
<path fill-rule="evenodd" clip-rule="evenodd" d="M240.304 46.3664C255.528 44.2049 278.562 47.9962 289.797 59.4465C304.077 74.0024 301.593 96.2771 301.598 115.132L301.728 162.648L267.819 162.612C267.57 156.708 267.683 151.417 267.812 145.507C255.317 162.712 238.895 168.247 218.259 162.282C194.51 153.642 189.692 122.952 206.379 105.372C220.497 90.4973 248.179 91.163 267.455 91.093C267.447 84.493 267.543 77.4771 265.37 71.1721C257.422 48.1095 229.62 55.7848 212.793 61.3918L212.143 52.5988C220.226 49.1504 231.629 47.1924 240.304 46.3664ZM267.42 100.042C261.358 99.9572 256.305 99.9874 250.254 100.282C235.852 102.652 229.898 112.717 229.572 126.662C229.293 138.562 234.254 149.808 247.665 150.693C271.483 147.057 267.529 117.957 267.42 100.042Z" fill="black"/>
<path d="M407.152 48.5972L419.237 48.7027C407.407 63.8442 391.262 82.9727 378.692 97.4627C392.957 119.143 407.812 140.208 422.142 161.733L422.092 161.853C420.437 162.883 386.762 162.633 381.897 162.653C372.942 149.878 364.137 136.293 355.297 123.333C344.002 135.938 333.677 150.143 322.612 162.718L309.987 162.753C314.562 157.573 319.327 151.348 323.807 145.913C332.407 135.448 341.112 125.063 349.912 114.758C340.562 101.583 331.317 87.0727 322.097 73.6977C318.242 68.1022 308.117 53.7517 305.522 48.7987C316.197 48.3412 335.292 48.5307 345.817 49.0052C354.577 61.6852 363.947 77.3927 373.067 89.3827C383.737 75.9227 396.037 61.8447 407.152 48.5972Z" fill="black"/>
<path d="M191.748 47.3091C193.024 47.1461 196.172 47.16 197.596 47.124L197.566 79.8175C188.601 79.6675 174.676 79.1625 167.915 85.7325C158.103 95.2625 159.775 113.953 159.828 126.423C159.924 138.508 159.947 150.588 159.898 162.668L125.496 162.618L125.491 138.413L125.367 48.7295C136.738 48.6405 148.109 48.661 159.48 48.792C159.587 59.662 159.592 70.5325 159.494 81.4025C166.815 63.7885 170.177 50.4671 191.748 47.3091Z" fill="black"/>
<path d="M518.703 46.3683C530.713 45.3273 545.063 48.3593 556.618 51.5248C556.793 54.8943 556.778 58.3163 556.803 61.6933C547.573 58.1413 537.863 55.9723 527.998 55.2558C517.823 54.5553 498.953 55.5678 499.083 69.9128C499.188 81.4678 515.628 85.9928 524.733 88.8928C543.558 94.9228 564.408 102.788 564.308 126.168C564.193 155.278 543.768 164.568 517.648 164.733C501.783 164.583 493.863 162.023 479.298 158.878L479.283 148.128C493.053 153.333 529.003 162.538 540.058 148.743C542.228 146.053 543.233 142.613 542.863 139.178C540.778 121.193 500.933 119.013 488.618 106.838C478.153 97.9878 476.038 85.1678 479.563 72.0578C484.488 53.7838 501.628 47.6073 518.703 46.3683Z" fill="black"/>
<path d="M430.633 48.564L465.133 48.692L465.308 162.662L430.468 162.617C430.548 125.387 429.793 85.5325 430.633 48.564Z" fill="black"/>
<path d="M444.567 0.272756C455.147 -1.49874 465.197 5.54128 467.147 16.0923C469.097 26.6438 462.227 36.8103 451.712 38.9388C444.747 40.3483 437.567 37.8918 432.922 32.5133C428.282 27.1348 426.902 19.6708 429.317 12.9888C431.727 6.30626 437.557 1.44526 444.567 0.272756Z" fill="black"/>
</svg>
