<svg width="574" height="134" viewBox="0 0 574 134" fill="none" xmlns="http://www.w3.org/2000/svg">
<path fill-rule="evenodd" clip-rule="evenodd" d="M173.914 0.884639C187.235 -1.24036 206.028 3.63169 217.105 11.7157C246.119 32.8923 248.23 81.8304 228.511 109.815C219.085 123.19 204.124 129.62 188.181 132.11C171.004 133.445 155.592 130.78 141.776 119.91C114.462 98.4199 112.77 48.4866 133.468 22.0897C143.874 8.81823 157.653 2.76515 173.914 0.884639ZM204.222 31.9716C200.405 17.8194 191.546 9.60062 176.547 10.329C158.555 14.496 154.51 34.3267 153.11 50.3592C151.14 72.931 149.977 127.415 184.868 122.865C191.676 120.825 197.308 117.35 200.393 110.57C210.797 87.6952 210.65 55.8051 204.222 31.9716Z" fill="black"/>
<path d="M95.65 3.06855C98.792 2.93905 102.414 3.07706 105.595 3.12806L105.592 89.37C105.588 101.385 105.459 113.495 105.791 125.505C105.818 126.485 105.7 128.54 105.139 129.36C104.711 129.99 104.336 129.785 103.25 129.925L75.558 129.805C53.108 95.125 31.1285 60.14 9.6255 24.867C9.9785 39.322 9.758 54.5655 9.782 69.07L9.938 129.745L0.1035 129.65L0 3.16056C10.3495 2.92706 21.305 3.13904 31.698 3.17304C53.4365 36.622 74.317 71.0301 96.023 104.585C95.2505 93.0601 95.6205 78.57 95.6225 66.815L95.65 3.06855Z" fill="black"/>
<path d="M520.025 0.400123C536.375 -1.64338 558.515 4.29863 571.375 14.6106C569.19 18.8286 560.53 33.9731 557.535 37.1491C549.7 23.1906 539.785 9.21265 521.92 10.0996C511.525 10.6156 501.695 17.7801 502.8 29.0551C503.96 40.8481 515.52 44.8601 524.88 48.6601C545.26 57.0951 571.01 63.8701 573.325 89.8751C575.305 112.095 561.405 126.865 540.54 131.34C535.56 132.41 531.125 132.735 526.035 133.085C508.12 133.115 490.58 127.915 475.58 118.11C479.155 110.68 485.02 100.765 489.365 93.8452C498.33 109.915 507.55 123.115 528.145 122.94C544.565 123.99 556.38 103.23 542.845 92.1151C522.835 75.6851 482.87 76.2151 479.145 43.9351C476.08 17.3746 494.855 3.00712 520.025 0.400123Z" fill="black"/>
<path d="M362.385 3.10116C372.365 2.68216 384.07 3.03966 394.16 3.12566L394.24 60.1201C394.21 72.8051 393.56 85.5501 395.375 98.0401C399.995 130.515 448.85 128.13 454.235 97.7301C456.32 85.9351 455.485 73.1402 455.47 61.1402L455.495 3.06914C458.65 2.99464 462.23 3.11766 465.42 3.15716L465.52 14.5127L465.46 61.0601C465.51 80.2901 468.315 104.555 453.525 119.27C435.08 137.62 391.84 137.225 373.78 118.795C368.7 113.555 365.175 107.005 363.605 99.8751C361.405 90.2651 362.145 70.0551 362.155 59.5001C362.08 40.7001 362.155 21.9002 362.385 3.10116Z" fill="black"/>
<path d="M343.415 2.98256L353.475 3.20705C350.62 10.7995 347.84 18.4216 345.145 26.0726C332.7 60.1901 320.285 96.14 306.995 129.73C301.075 130.225 294.91 129.98 288.975 129.755C271.863 87.8351 255.471 45.6216 239.804 3.13857C250.471 2.75757 262.928 3.08506 273.714 3.13506C278.205 16.8621 284.23 32.2985 289.295 45.9506L309.01 99.8801L343.415 2.98256Z" fill="black"/>
</svg>
