<svg width="472" height="135" viewBox="0 0 472 135" fill="none" xmlns="http://www.w3.org/2000/svg">
<path fill-rule="evenodd" clip-rule="evenodd" d="M370.082 0.0647912C395.042 -0.569155 416.167 3.13662 431.132 25.1605C433.602 28.8504 435.737 32.7542 437.512 36.8246C445.137 53.8289 451.446 71.9996 458.236 89.3695L467.387 113.43C474.886 132.855 475.156 133.264 453.457 132.66C449.127 132.54 444.877 133.575 440.582 132.045C434.962 127.26 441.496 111.43 435.656 108.555C431.636 108.935 424.266 117.75 420.182 121.055C416.792 123.82 413.106 126.21 409.196 128.18C387.476 139.075 355.682 136.284 344.087 112.41C340.327 104.58 339.856 95.5699 342.781 87.39C349.036 69.435 368.052 58.8144 384.182 51.0619C392.301 47.1844 409.686 41.2679 415.826 35.9945C410.876 30.9096 403.582 28.0379 396.707 26.3294C376.222 21.2399 349.741 14.615 330.271 25.4994C316.841 33.0114 309.336 48.3664 307.656 63.0599C306.886 69.7799 307.121 78.0203 307.141 84.8802L307.271 112.05C307.321 116.496 308.696 131.405 304.406 132.19C299.696 133.055 280.852 133.439 276.887 131.66C274.077 127.289 275.351 99.7145 275.231 93.3246C274.756 68.2798 273.997 44.9165 292.441 25.3011C311.671 4.85262 343.507 1.23779 370.082 0.0647912ZM436.121 70.555C436.446 57.1152 425.777 52.8564 414.092 54.0228C395.877 56.2393 368.921 70.3997 372.151 92.3197C372.956 98.1446 376.101 103.39 380.856 106.85C384.981 109.875 389.366 111.25 394.371 111.895C400.666 111.91 405.416 111.404 411.121 108.384C424.416 101.344 435.746 85.8799 436.121 70.555Z" fill="black"/>
<path fill-rule="evenodd" clip-rule="evenodd" d="M59.1875 0.948413C95.5422 -2.96235 128.195 23.3112 132.155 59.6594C136.115 96.0092 109.885 128.7 73.541 132.71C37.1275 136.725 4.36299 110.435 0.395463 74.0148C-3.57204 37.5963 22.763 4.86691 59.1875 0.948413ZM111.957 68.175C106.71 41.869 76.5787 19.4034 49.8017 23.0148C41.0332 24.3398 31.4529 28.3586 26.4804 35.9426C2.56542 72.4146 45.747 116.634 83.371 111.239C104.128 107.349 116.055 88.7198 111.957 68.175Z" fill="black"/>
<path d="M145.001 0.979015C148.658 0.754515 152.835 1.05851 156.412 0.864513C177.433 -0.275487 173.454 3.96151 173.477 22.0325L173.48 63.05C173.454 70.57 173.124 83.685 174.029 90.575C174.56 94.645 175.701 98.61 177.415 102.34C188.238 125.49 220.253 124.32 229.002 99.825C230.097 96.72 230.817 93.5 231.152 90.225C232.047 81.92 231.707 70.215 231.687 61.53L231.692 20.904C231.672 16.256 230.932 7.0535 232.172 3.1085C235.942 -0.517998 256.127 0.333013 261.237 2.05201C264.162 3.03451 263.357 15.5215 263.312 18.656L263.337 55.83C263.342 64.1 263.442 72.15 262.862 80.315C260.377 115.265 230.087 137.215 196.051 133.29C179.687 131.405 165.248 124.68 154.706 111.725C149.42 105.19 145.756 97.495 144.016 89.27C140.726 74.27 142.949 48.3655 142.314 32.088C141.998 23.995 142.147 13.5775 142.357 5.36601C142.414 3.14401 143.366 2.29102 145.001 0.979015Z" fill="black"/>
</svg>
