<svg width="523" height="144" viewBox="0 0 523 144" fill="none" xmlns="http://www.w3.org/2000/svg">
<path d="M305.219 6.47217C306.559 6.48867 306.534 6.41667 307.739 6.94217C308.809 10.1032 308.144 63.4932 307.794 70.9987C311.014 65.4892 313.839 61.0237 318.959 56.9892C326.354 51.1147 335.799 48.4497 345.174 49.5907C369.374 52.6722 368.284 73.5687 368.244 91.0387L368.214 118.294C368.219 126.129 367.509 139.269 378.199 139.584C379.124 139.609 378.969 139.764 379.659 140.339L379.509 141.369L378.899 141.804C373.909 142.429 338.264 142.309 333.344 141.449C333.224 140.184 344.019 136.839 343.629 131.004C342.609 115.574 346.159 89.8237 342.964 75.2637C342.914 75.0537 342.874 74.8337 342.814 74.6237C341.769 70.9037 339.464 67.6362 336.034 65.7652C331.624 63.3612 325.919 63.2942 321.229 64.8537C316.264 66.5042 311.944 70.1037 309.684 74.8637C307.039 80.4287 307.234 129.719 309.514 134.969C310.829 138.004 316.754 139.819 319.614 141.164L319.434 141.799C307.114 142.469 294.574 141.969 282.224 142.004C279.149 142.014 275.679 142.074 272.689 141.494L272.554 140.709C275.989 137.414 282.964 138.974 283.404 130.339C283.914 120.429 283.744 110.414 283.764 100.484L283.759 38.5602C283.729 34.6152 283.604 31.3137 281.934 27.6217C280.079 23.5207 273.704 24.3027 271.184 21.8312C272.314 19.7777 291.789 16.7322 296.059 13.7782C300.149 10.9432 301.474 10.6782 305.219 6.47217Z" fill="black"/>
<path fill-rule="evenodd" clip-rule="evenodd" d="M61.5195 14.4551C66.185 14.9756 65.3451 16.717 67.041 20.8799L73.3652 36.1201C82.9927 59.4791 92.1438 83.0141 102.094 106.249C106.391 115.959 110.082 125.894 115.659 134.959C118.329 139.299 123.494 138.449 124.047 141.398C123.194 141.833 122.449 142.013 121.141 142.033C105.861 142.238 90.4891 142.144 75.2021 142.059C74.9223 141.814 74.6426 141.574 74.3633 141.334L74.458 140.259C77.831 138.879 82.1249 138.124 82.9814 134.139C84.8334 125.514 78.2199 113.204 74.5488 105.554C69.9293 104.084 66.665 103.449 61.876 103.094C46.6177 102.979 35.7676 106.759 31.2031 122.903C26.7862 138.523 37.7495 137.643 39.8271 141.153L39.3682 141.849C35.7692 142.339 1.515 142.614 0 141.304C1.4585 138.199 8.54752 138.423 12.6865 129.188C18.321 116.619 23.5199 103.814 28.8799 91.1436C39.6033 65.5127 50.4831 39.9499 61.5195 14.4551ZM50.5049 48.0215C42.6955 66.7433 33.795 86.8183 26.6016 105.623C33.5174 104.313 40.4086 102.879 47.2705 101.309C57.68 99.8286 63.359 99.3188 73.415 102.424C70.0416 94.889 53.1981 51.1487 50.5049 48.0215Z" fill="black"/>
<path fill-rule="evenodd" clip-rule="evenodd" d="M161.728 49.342C175.872 48.1765 190.091 53.9637 198.867 65.2336C205.551 73.8185 206.223 82.7287 206.446 93.1086C184.623 92.8536 162.799 92.7238 140.974 92.7238C142.684 128.284 180.448 141.529 201.201 114.039C202.18 112.394 203.064 110.024 205.19 110.524C206.839 114.248 202.42 121.643 200.198 124.899C186.106 145.539 153.22 149.379 133.779 134.249C114.113 118.949 113.635 84.7039 129.004 66.0324C137.486 55.727 148.521 50.6525 161.728 49.342ZM178.861 85.2932C189.462 72.7832 181.579 52.2677 164.351 52.9572C163.062 53.0137 161.776 53.1112 160.493 53.2482C143.275 58.2142 140.588 74.0982 140.678 89.673C148.478 89.708 156.456 89.8284 164.24 89.7434C169.465 89.6934 175.232 89.5781 178.861 85.2932Z" fill="black"/>
<path fill-rule="evenodd" clip-rule="evenodd" d="M425.94 49.3457C443.16 47.7704 461.249 56.9237 467.534 73.499C470.199 80.5239 470.4 85.4444 470.645 92.9043L405.03 92.6934C406.21 103.253 409.164 114.953 417.909 121.688C433.429 133.633 453.699 129.364 465.419 114.969C466.394 113.239 467.024 111.654 468.739 110.704L469.599 111.019C470.854 116.039 465.934 123.784 462.874 127.714C448.329 146.409 416.474 148.359 398.429 134.059C378.639 118.378 377.859 84.0833 393.719 65.4014C402.489 55.0175 412.58 50.5842 425.94 49.3457ZM441.155 57.4092C436.145 53.0182 431.509 52.8247 425.299 53.2207C407.504 57.2968 404.729 74.0388 405.004 89.6787C412.409 90.0287 420.09 89.8533 427.525 89.7783C430.15 89.7483 433.24 89.8489 435.765 89.2139C450.099 85.6336 451.119 66.1442 441.155 57.4092Z" fill="black"/>
<path d="M508.034 5.95947C509.339 5.96897 509.304 5.88645 510.429 6.50345C510.949 9.86545 510.544 29.769 510.534 34.6595L510.524 99.8134C510.564 109.228 510.364 119.358 510.699 128.758C511.139 141.228 520.124 138.743 522.344 140.593L522.204 141.373C519.974 142.643 482.099 142.093 476.524 142.083C475.199 142.043 475.659 142.108 474.404 141.648L474.119 140.588C475.894 138.823 479.839 139.823 482.254 137.758C485.879 134.638 486.129 128.578 486.139 124.093C486.204 94.5385 486.134 64.9735 486.144 35.4225C486.144 33.0995 485.454 30.0055 484.504 27.925C482.864 24.328 476.624 24.2235 474.329 21.835C474.904 20.941 475.049 20.6925 476.199 20.4105C489.254 17.2105 498.484 16.185 508.034 5.95947Z" fill="black"/>
<path d="M241.645 23.7704C243.844 23.8354 244.293 23.4868 245.907 24.4548C246.54 28.3943 246.182 45.1973 246.166 50.3623C251.084 50.4893 263.944 49.8653 267.689 50.8573C268.129 52.4098 267.959 52.7868 267.774 54.3868C265.539 55.0058 249.094 54.8659 245.918 54.8814C245.458 75.7334 246.014 97.0483 245.999 117.948C245.995 122.863 247.598 127.018 251.399 130.413C259.664 137.798 269.594 124.773 272.239 124.463L272.504 125.288C271.814 130.458 268.999 133.183 265.334 136.638C260.004 140.958 254.989 142.783 248.204 143.178C216.987 145.003 221.164 119.853 221.2 98.6383C221.294 84.1983 221.27 69.7583 221.126 55.3223C218.253 55.1163 209.018 56.1783 208.044 53.4648C210.12 49.0973 232.487 49.4879 241.645 23.7704Z" fill="black"/>
<path fill-rule="evenodd" clip-rule="evenodd" d="M166.183 0.187554C177.069 -1.30393 187.122 6.26151 188.702 17.1348C190.282 28.0087 182.799 38.1225 171.938 39.7911C160.952 41.4791 150.696 33.8892 149.097 22.8897C147.499 11.8904 155.171 1.69609 166.183 0.187554ZM185.598 16.3838C183.555 7.09017 174.342 1.23115 165.058 3.32134C155.841 5.39734 150.032 14.5308 152.061 23.7588C154.09 32.9863 163.194 38.8404 172.432 36.8585C181.737 34.8613 187.642 25.6777 185.598 16.3838Z" fill="black"/>
</svg>
