<svg width="588" height="144" viewBox="0 0 588 144" fill="none" xmlns="http://www.w3.org/2000/svg">
<path d="M268.662 67.258C273.127 60.653 278.199 54.671 285.491 51.0735C297.836 45.004 314.741 45.652 324.831 55.7445C336.941 67.853 334.381 87.233 334.341 103.078L334.436 141.508C326.516 141.878 316.896 141.578 308.846 141.523C308.572 127.623 308.492 113.723 308.607 99.823C308.607 89.813 310.541 70.343 300.701 65.303C283.371 56.4255 269.888 69.7431 270.027 87.3381C270.136 101.083 270.067 114.383 270.112 127.733L270.15 141.593C261.874 141.878 252.786 141.693 244.448 141.683L244.329 100.598C244.297 92.213 245.632 75.058 239.931 68.613C228.882 56.124 208.486 64.473 206.179 80.508C205.034 88.458 205.548 95.923 205.595 104.013L205.739 141.548C197.168 141.693 188.452 141.648 179.869 141.683L179.809 94.3931C179.778 72.5631 175.675 50.225 205.029 48.758C205.235 54.749 205.301 60.743 205.225 66.738C205.994 65.528 206.803 64.343 207.649 63.188C214.902 53.3645 221.846 49.2995 233.826 47.5385C250.192 45.4295 261.171 53.436 268.662 67.258Z" fill="black"/>
<path fill-rule="evenodd" clip-rule="evenodd" d="M536.877 47.0527C549.347 44.7794 568.756 48.8611 577.581 58.5566C585.961 67.7626 587.257 77.9132 587.127 89.8632C586.937 107.148 587.572 124.348 587.182 141.578C578.562 141.768 569.941 141.823 561.321 141.738C561.346 136.818 561.422 131.903 561.552 126.988C552.457 140.778 538.957 145.743 522.602 143.368C513.777 142.088 508.186 138.048 503.031 130.893C499.051 123.308 498.336 115.308 501.236 107.223C508.896 85.888 534.602 90.8532 551.312 83.3183C560.056 79.3783 564.546 69.7634 559.481 61.0634C557.271 57.2494 553.546 54.5511 549.236 53.6376C535.877 50.7673 527.317 60.3079 524.566 72.3876C518.751 73.0726 511.436 72.8929 505.531 72.7529C508.561 55.9544 521.197 49.1682 536.877 47.0527ZM561.366 82.2734C548.566 96.5979 524.872 90.8785 525.017 116.903C525.047 121.693 526.811 125.173 529.696 128.923C533.766 132.113 537.467 133.673 542.592 132.968C563.726 130.058 561.732 109.928 561.547 93.9931C561.507 90.4883 561.871 85.4984 561.366 82.2734Z" fill="black"/>
<path d="M70.0109 49.3651C78.4779 49.1791 87.3299 49.3186 95.8264 49.3336L95.8904 92.6731C95.8774 99.2081 95.2379 110.293 96.3224 116.013C100.857 139.918 132.065 131.723 135.161 110.503C136.464 101.573 136.062 94.6731 136.053 86.1931L136.003 49.3796C144.675 49.2916 153.347 49.2951 162.019 49.3901L162.073 77.4931L162.036 141.478C153.363 141.713 144.688 141.823 136.013 141.798L135.921 125.588C133.88 128.188 131.96 130.468 129.737 132.908C117.456 146.388 92.2024 147.453 79.1094 134.233C75.2549 130.323 72.5319 125.438 71.2294 120.108C69.4099 112.778 69.9704 98.0581 69.9754 89.9481L70.0109 49.3651Z" fill="black"/>
<path d="M448.802 47.5176C458.722 46.4456 469.272 48.4726 476.532 55.7596C480.897 60.2181 483.957 65.7831 485.382 71.8581C487.387 80.1031 486.732 94.0681 486.757 103.098C486.847 115.908 486.872 128.723 486.832 141.538L460.952 141.633C460.552 123.358 460.887 105.123 460.717 86.6131C460.592 73.4731 457.312 61.7031 440.977 62.3331C434.232 62.5981 430.072 65.7331 425.777 70.7231C419.302 80.6531 420.982 91.6331 420.987 103.098L421.017 141.528C412.352 141.643 403.682 141.648 395.017 141.543L394.937 98.2331C394.902 75.5081 391.492 52.4661 420.952 48.1876C421.007 54.1096 421.002 60.0331 420.947 65.9531C429.247 55.6501 435.542 49.6436 448.802 47.5176Z" fill="black"/>
<path d="M0 0.828081C8.8325 0.678081 17.6665 0.653092 26.5 0.752092L26.5175 65.7731C26.5455 91.3481 30.193 103.583 13.4935 124.928C8.8875 130.183 5.22399 133.458 0.00999451 137.953L0 0.828081Z" fill="black"/>
<path d="M375.922 49.3446C377.187 49.2721 376.597 49.1321 377.692 49.7611C378.232 51.7226 377.977 70.8531 377.977 74.3881L377.931 141.613C369.621 141.718 361.312 141.778 352.997 141.788L352.092 141.353C351.457 138.958 351.692 127.278 351.772 124.183C352.467 97.9731 345.057 61.3231 375.922 49.3446Z" fill="black"/>
<path d="M358.576 0.507624C368.701 -1.87638 378.851 4.36312 381.301 14.4751C383.746 24.5866 377.566 34.7761 367.471 37.2831C357.286 39.8116 346.991 33.5686 344.521 23.3696C342.056 13.1706 348.361 2.91262 358.576 0.507624Z" fill="black"/>
<path d="M52.459 110.998L57.5374 110.613C57.7064 120.973 57.7269 131.333 57.5989 141.688C41.1024 141.858 24.6045 141.893 8.10745 141.803L1.62744 141.798C8.61594 138.638 15.2549 134.758 21.4364 130.218C31.8309 122.698 39.876 114.283 52.459 110.998Z" fill="black"/>
</svg>
