<svg width="514" height="91" viewBox="0 0 514 91" fill="none" xmlns="http://www.w3.org/2000/svg">
<path fill-rule="evenodd" clip-rule="evenodd" d="M287.793 0.272551C312.608 -2.44676 334.923 15.4903 337.603 40.3116C340.283 65.1366 322.313 87.4216 297.483 90.0616C272.713 92.6965 250.488 74.7768 247.813 50.0069C245.138 25.2404 263.028 2.98605 287.793 0.272551ZM325.428 41.9815C323.788 24.024 307.988 10.7359 290.013 12.1964C271.783 13.6779 258.268 29.7487 259.928 47.961C261.593 66.176 277.799 79.5365 295.994 77.6915C313.938 75.8713 327.068 59.9413 325.428 41.9815Z" fill="black"/>
<path d="M390.583 0.224557C409.403 -1.20594 425.388 7.80806 434.253 24.3391L423.868 29.9081C419.273 22.7246 414.468 17.1176 406.233 14.0501C398.008 11.0246 388.923 11.3336 380.923 14.9106C372.873 18.5961 367.208 24.8916 364.138 33.1666C360.918 41.7316 361.328 51.2415 365.268 59.4965C373.508 77.0465 392.683 82.5365 409.743 74.3115C416.603 70.6765 420.038 66.6416 423.953 60.1616C428.058 62.0066 430.823 63.4115 434.733 65.6365C433.228 68.3915 432.068 70.4666 430.143 72.9616C422.903 82.3216 412.188 88.3565 400.433 89.6915C388.298 91.1315 376.448 88.1366 366.838 80.5165C357.418 73.0415 351.368 62.1166 350.028 50.1716C348.668 38.1116 352.153 26.0061 359.708 16.5121C367.588 6.69956 378.223 1.51006 390.583 0.224557Z" fill="black"/>
<path d="M179.308 0.500488L191.738 0.569977L191.723 78.0065C207.709 77.9265 223.695 77.9365 239.68 78.0365C239.723 80.5165 240.171 88.0815 239.108 89.7565C235.695 89.8765 232.09 89.8415 228.677 89.7515C212.33 89.3215 195.61 90.3965 179.303 89.6265L179.308 0.500488Z" fill="black"/>
<path d="M0 0.538744C4.403 0.484244 8.91051 0.537225 13.324 0.538225C18.3865 11.3972 23.6065 24.8347 28.3145 36.0612L51.0675 89.7062C46.273 89.8762 42.461 89.8662 37.665 89.6912C24.919 60.8262 12.385 29.7807 0 0.538744Z" fill="black"/>
<path d="M71.168 0.528994C75.662 0.451494 80.397 0.5515 84.911 0.573L61.45 57.1565L58.3965 63.4365C56.2015 58.3515 54.1075 53.2165 52.116 48.0465C53.709 43.2715 56.881 36.1965 58.862 31.3625C63.0525 21.1205 67.155 10.842 71.168 0.528994Z" fill="black"/>
<path d="M99.8079 77.9716C120.367 77.8066 140.927 77.7916 161.486 77.9266C161.562 80.2666 162.086 88.0665 161.102 89.6365C141.667 89.9465 119.328 90.1465 99.9468 89.5765C99.7793 85.8265 99.8304 81.7516 99.8079 77.9716Z" fill="black"/>
<path d="M452.508 77.9466C472.908 77.7916 493.308 77.8016 513.713 77.9816L513.763 89.6116C494.273 90.0216 472.093 89.9516 452.598 89.5966C452.428 85.5466 452.438 82.0016 452.508 77.9466Z" fill="black"/>
<path d="M99.7925 0.579489C119.835 0.221989 141.268 0.599978 161.391 0.586478C161.423 4.41448 161.354 8.33747 161.331 12.174C140.986 12.05 120.181 12.575 99.8915 12.091L99.7925 0.579489Z" fill="black"/>
<path d="M452.403 0.586914L513.703 0.59494C513.748 4.46344 513.713 8.33242 513.608 12.1999C493.258 12.3819 472.913 12.3869 452.563 12.2144C452.383 8.52342 452.438 4.31891 452.403 0.586914Z" fill="black"/>
<path d="M99.7754 39.2314C117.189 38.8564 136.052 39.2164 153.604 39.2114C153.652 43.1614 153.622 47.1114 153.516 51.0564L99.7214 51.1464C99.6899 47.1714 99.7074 43.2014 99.7754 39.2314Z" fill="black"/>
<path d="M452.388 39.2065L506.018 39.2715C506.123 43.0565 506.003 47.0916 505.948 50.9016C501.838 51.3216 492.233 51.1016 487.863 51.1016L452.363 51.0416C452.243 47.1966 452.348 43.0765 452.388 39.2065Z" fill="black"/>
</svg>
