<svg width="577" height="147" viewBox="0 0 577 147" fill="none" xmlns="http://www.w3.org/2000/svg">
<path d="M29.5475 23.2302C43.5645 22.0277 59.8615 25.9786 66.242 40.3001C67.6685 43.5031 69.009 49.6627 67.6795 53.0507C65.7385 54.4897 55.082 53.6651 52.1095 53.5666C51.244 48.7681 50.3295 45.5872 46.5075 42.3177C39.9595 36.7162 27.085 35.8111 21.4465 43.1636C19.7705 45.3496 18.273 49.1061 18.8655 51.8516C21.0405 62.1116 37.4355 64.8367 47.4905 67.4817C68.944 73.1317 78.1595 92.6566 65.252 111.557C59.988 119.267 49.4335 122.367 39.844 123.462C18.6775 124.507 1.919 115.112 0 92.6467C5.2515 92.4417 11.1815 92.6216 16.482 92.6616C17.577 96.8916 18.5235 100.507 22.3805 103.632C31.689 111.177 56.123 109.297 53.7285 93.1016C52.292 83.3866 35.0625 81.2517 26.7955 78.7167C15.5815 75.2817 4.32451 69.9066 2.25351 56.5846C1.01801 48.4931 2.15951 41.6037 7.47401 34.8957C13.664 27.0827 19.984 24.6352 29.5475 23.2302Z" fill="black"/>
<path fill-rule="evenodd" clip-rule="evenodd" d="M381.997 50.2637C383.337 50.1687 385.942 50.2185 387.288 50.3175C395.782 50.8804 403.688 54.8574 409.203 61.3428C416.753 70.2413 418.363 81.1417 417.393 92.4317L366.268 92.4415C371.333 110.636 388.893 114.126 401.453 100.636L412.308 100.651L414.943 100.836C415.518 101.416 416.098 101.722 415.988 102.482C413.758 113.336 401.078 121.587 390.713 123.097C349.673 129.072 334.783 74.0167 367.688 54.1212C372.013 51.5057 376.878 50.6987 381.997 50.2637ZM401.258 79.9171C397.938 68.6471 392.708 63.9516 380.658 64.6466C371.678 67.1316 368.783 70.9068 366.648 79.9717C373.298 80.0717 379.948 80.0968 386.598 80.0518L401.258 79.9171Z" fill="black"/>
<path d="M278.773 25.7032C284.348 25.6737 289.308 25.7082 294.888 25.9562C295.588 34.8462 295.148 49.5902 295.148 58.9672C309.693 44.0842 336.288 49.4757 339.193 69.7762C341.193 83.7662 340.798 106.651 340.278 121.106C334.708 121.316 329.753 121.236 324.198 121.121C323.658 110.756 323.918 99.1812 323.948 88.7212C323.968 83.0312 324.453 75.3312 320.903 70.6562C317.323 65.8812 307.928 64.1512 302.938 67.3712C293.248 73.6312 295.188 86.1562 295.083 95.9512C294.993 104.371 295.528 112.851 294.998 121.201C290.573 121.681 283.038 121.436 278.618 121.181C277.933 113.711 278.458 95.8712 278.468 87.8712C278.403 67.1462 278.508 46.4247 278.773 25.7032Z" fill="black"/>
<path d="M182.287 50.6908C183.598 50.5978 184.911 50.5413 186.225 50.5203C198.257 50.4333 210.121 58.2142 211.683 70.0262C213.72 85.4212 212.981 105.566 212.727 121.111C207.065 121.311 202.21 121.286 196.562 121.176C196.068 115.921 196.367 110.031 196.327 104.746C196.218 90.3162 201.033 58.0887 175.479 67.4412C168.07 72.0212 166.674 78.3912 166.675 86.6212C166.677 98.1012 166.961 109.601 166.697 121.081C161.41 121.531 155.532 121.386 150.239 121.111C149.292 101.011 150.158 72.7662 150.253 52.1992L166.504 52.0547L166.697 59.6077C171.521 54.0777 175.341 52.2413 182.287 50.6908Z" fill="black"/>
<path d="M124.984 52.0944C130.832 52.0824 136.416 52.0229 142.26 52.3889C141.095 56.6734 138.168 63.5464 136.508 67.9114C132.263 78.8364 128.175 89.8264 124.246 100.871C118.685 113.316 114.539 134.201 103.858 142.866C97.722 147.846 90.508 147.286 83.2465 146.406C83.131 141.946 83.2295 137.201 83.2445 132.716C96.247 132.631 96.4785 131.441 101.157 119.516C94.5815 107.106 88.659 88.4763 82.971 75.2913C81.353 71.5363 74.591 55.2814 74.032 52.1089C79.7225 52.1069 85.413 52.1699 91.1025 52.2969L108.904 99.8864C114.21 84.0264 119.457 67.8614 124.984 52.0944Z" fill="black"/>
<path d="M557.138 52.1135C563.243 51.982 569.713 52.0855 575.843 52.0865C573.528 55.9355 569.638 60.8375 566.918 64.5565C561.633 71.7365 556.483 79.0216 551.483 86.4066C555.663 92.2016 574.803 116.182 576.513 120.372L575.973 121.097L573.768 121.392C568.593 121.482 563.423 121.397 558.258 121.137C552.323 114.007 547.353 106.142 541.438 98.9165C536.273 106.232 530.758 114.362 525.253 121.337C521.823 121.467 509.593 121.997 507.048 120.722C508.063 117.602 527.753 91.8015 531.473 86.3615C527.913 80.7565 508.578 56.637 507.323 52.88L508.423 52.2955C514.168 51.9755 519.913 52.085 525.668 52.12C530.473 57.957 536.978 67.5815 541.858 74.0365C546.438 66.8915 552.193 59.11 557.138 52.1135Z" fill="black"/>
<path d="M434.523 32.7939C439.513 32.7269 444.503 32.7269 449.493 32.7939C449.813 38.5474 449.663 46.1294 449.713 52.0234L466.833 52.1144C466.998 56.9219 466.883 61.1619 466.738 65.9514C461.178 66.1414 455.098 66.0814 449.498 66.1314C449.598 73.8314 449.608 81.9514 449.553 89.6414C449.438 105.556 450.453 110.241 467.013 105.291C467.183 109.731 467.463 114.161 467.848 118.586C466.823 121.056 459.683 122.451 457.223 122.581C440.473 123.461 433.048 114.151 433.188 98.0864C433.283 87.5164 433.248 76.5464 433.108 66.0814L421.268 66.0264C421.113 61.5054 421.213 56.6459 421.228 52.0984C425.278 52.0844 429.328 52.0164 433.378 51.8944C433.593 48.0999 432.868 34.5779 434.523 32.7939Z" fill="black"/>
<path d="M232.939 32.7944L247.736 32.9399L247.784 52.0214L265.494 52.1219C265.794 56.7569 265.685 61.4089 265.169 66.0264L247.824 66.1614C247.794 76.8464 247.025 91.1264 248.407 101.681C249.419 109.411 259.623 107.101 265.159 105.406C265.421 109.496 265.624 113.591 265.767 117.691C265.271 122.011 256.948 122.436 253.375 122.546C237.676 123.016 231.208 112.196 231.411 97.9665C231.563 87.2465 231.574 76.6465 231.55 66.1414L219.774 66.1064L219.694 52.5979C223.371 52.0584 227.865 52.0704 231.65 51.9759C231.627 48.3569 231.356 36.1124 232.012 33.2544L232.939 32.7944Z" fill="black"/>
<path d="M479.883 52.0854L496.453 52.1304L496.458 96.8664C496.473 104.391 496.768 113.821 496.263 121.076C490.833 121.286 485.168 121.471 479.763 121.116C479.538 99.2114 479.348 73.8064 479.883 52.0854Z" fill="black"/>
<path fill-rule="evenodd" clip-rule="evenodd" d="M488.583 0C491.02 0.290801 503.848 7.75667 507.268 9.61621L507.033 31.0762C502.073 34.2656 494.463 38.196 489.178 40.8975C482.878 37.6475 476.798 34.6612 470.718 30.9922C470.543 23.9748 470.459 16.9549 470.454 9.93555L488.583 0ZM488.749 12.5557C486.329 13.9352 484.038 15.2771 481.528 16.4941C481.458 19.2219 481.338 21.7698 481.528 24.498C484.148 25.881 486.779 27.2472 489.414 28.5957L496.033 24.8545C496.093 22.2431 496.219 19.4714 496.079 16.877C493.684 15.4265 491.213 13.8701 488.749 12.5557Z" fill="black"/>
</svg>
