<svg width="330" height="298" viewBox="0 0 330 298" fill="none" xmlns="http://www.w3.org/2000/svg">
<path d="M170 0H160V10H170V0Z" fill="#FF321D"/>
<path d="M154 16H144V26H154V16Z" fill="#FF321D"/>
<path d="M186 16H176V26H186V16Z" fill="#FF321D"/>
<path d="M154 32H144V42H154V32Z" fill="#FF321D"/>
<path d="M186 32H176V42H186V32Z" fill="#FF321D"/>
<path d="M154 48H144V58H154V48Z" fill="#FF321D"/>
<path d="M186 48H176V58H186V48Z" fill="#FF321D"/>
<path d="M138 64H128V74H138V64Z" fill="#FF321D"/>
<path d="M202 64H192V74H202V64Z" fill="#FF321D"/>
<path d="M138 80H128V90H138V80Z" fill="#FF321D"/>
<path d="M202 80H192V90H202V80Z" fill="#FF321D"/>
<path d="M106 96H96V106H106V96Z" fill="#FF321D"/>
<path d="M122 96H112V106H122V96Z" fill="#FF321D"/>
<path d="M218 96H208V106H218V96Z" fill="#FF321D"/>
<path d="M234 96H224V106H234V96Z" fill="#FF321D"/>
<path d="M10 112H0V122H10V112Z" fill="#FF321D"/>
<path d="M26 112H16V122H26V112Z" fill="#FF321D"/>
<path d="M42 112H32V122H42V112Z" fill="#FF321D"/>
<path d="M58 112H48V122H58V112Z" fill="#FF321D"/>
<path d="M282 112H272V122H282V112Z" fill="#FF321D"/>
<path d="M298 112H288V122H298V112Z" fill="#FF321D"/>
<path d="M314 112H304V122H314V112Z" fill="#FF321D"/>
<path d="M330 112H320V122H330V112Z" fill="#FF321D"/>
<path d="M26 128H16V138H26V128Z" fill="#FF321D"/>
<path d="M42 128H32V138H42V128Z" fill="#FF321D"/>
<path d="M298 128H288V138H298V128Z" fill="#FF321D"/>
<path d="M314 128H304V138H314V128Z" fill="#FF321D"/>
<path d="M58 144H48V154H58V144Z" fill="#FF321D"/>
<path d="M282 144H272V154H282V144Z" fill="#FF321D"/>
<path d="M74 160H64V170H74V160Z" fill="#FF321D"/>
<path d="M266 160H256V170H266V160Z" fill="#FF321D"/>
<path d="M90 176H80V186H90V176Z" fill="#FF321D"/>
<path d="M250 176H240V186H250V176Z" fill="#FF321D"/>
<path d="M106 192H96V202H106V192Z" fill="#FF321D"/>
<path d="M234 192H224V202H234V192Z" fill="#FF321D"/>
<path d="M90 208H80V218H90V208Z" fill="#FF321D"/>
<path d="M250 208H240V218H250V208Z" fill="#FF321D"/>
<path d="M90 224H80V234H90V224Z" fill="#FF321D"/>
<path d="M250 224H240V234H250V224Z" fill="#FF321D"/>
<path d="M90 240H80V250H90V240Z" fill="#FF321D"/>
<path d="M154 240H144V250H154V240Z" fill="#FF321D"/>
<path d="M170 240H160V250H170V240Z" fill="#FF321D"/>
<path d="M186 240H176V250H186V240Z" fill="#FF321D"/>
<path d="M250 240H240V250H250V240Z" fill="#FF321D"/>
<path d="M122 256H112V266H122V256Z" fill="#FF321D"/>
<path d="M138 256H128V266H138V256Z" fill="#FF321D"/>
<path d="M202 256H192V266H202V256Z" fill="#FF321D"/>
<path d="M218 256H208V266H218V256Z" fill="#FF321D"/>
<path d="M74 272H64V282H74V272Z" fill="#FF321D"/>
<path d="M106 272H96V282H106V272Z" fill="#FF321D"/>
<path d="M234 272H224V282H234V272Z" fill="#FF321D"/>
<path d="M266 272H256V282H266V272Z" fill="#FF321D"/>
<path d="M74 288H64V298H74V288Z" fill="#FF321D"/>
<path d="M90 288H80V298H90V288Z" fill="#FF321D"/>
<path d="M250 288H240V298H250V288Z" fill="#FF321D"/>
<path d="M266 288H256V298H266V288Z" fill="#FF321D"/>
</svg>
