<svg width="398" height="398" viewBox="0 0 398 398" fill="none" xmlns="http://www.w3.org/2000/svg">
<path d="M158 0H144V14H158V0Z" fill="#FF3B22"/>
<path d="M182 0H168V14H182V0Z" fill="#FF3B22"/>
<path d="M206 0H192V14H206V0Z" fill="#FF3B22"/>
<path d="M230 0H216V14H230V0Z" fill="#FF3B22"/>
<path d="M254 0H240V14H254V0Z" fill="#FF3B22"/>
<path d="M110 24H96V38H110V24Z" fill="#FF3B22"/>
<path d="M134 24H120V38H134V24Z" fill="#FF3B22"/>
<path d="M278 24H264V38H278V24Z" fill="#FF3B22"/>
<path d="M302 24H288V38H302V24Z" fill="#FF3B22"/>
<path d="M86 48H72V62H86V48Z" fill="#FF3B22"/>
<path d="M326 48H312V62H326V48Z" fill="#FF3B22"/>
<path d="M62 72H48V86H62V72Z" fill="#FF3B22"/>
<path d="M350 72H336V86H350V72Z" fill="#FF3B22"/>
<path d="M38 96H24V110H38V96Z" fill="#FF3B22"/>
<path d="M302 96H288V110H302V96Z" fill="#FF3B22"/>
<path d="M374 96H360V110H374V96Z" fill="#FF3B22"/>
<path d="M38 120H24V134H38V120Z" fill="#FF3B22"/>
<path d="M254 120H240V134H254V120Z" fill="#FF3B22"/>
<path d="M278 120H264V134H278V120Z" fill="#FF3B22"/>
<path d="M374 120H360V134H374V120Z" fill="#FF3B22"/>
<path d="M14 144H0V158H14V144Z" fill="#FF3B22"/>
<path d="M206 144H192V158H206V144Z" fill="#FF3B22"/>
<path d="M230 144H216V158H230V144Z" fill="#FF3B22"/>
<path d="M278 144H264V158H278V144Z" fill="#FF3B22"/>
<path d="M398 144H384V158H398V144Z" fill="#FF3B22"/>
<path d="M14 168H0V182H14V168Z" fill="#FF3B22"/>
<path d="M182 168H168V182H182V168Z" fill="#FF3B22"/>
<path d="M206 168H192V182H206V168Z" fill="#FF3B22"/>
<path d="M230 168H216V182H230V168Z" fill="#FF3B22"/>
<path d="M254 168H240V182H254V168Z" fill="#FF3B22"/>
<path d="M398 168H384V182H398V168Z" fill="#FF3B22"/>
<path d="M14 192H0V206H14V192Z" fill="#FF3B22"/>
<path d="M158 192H144V206H158V192Z" fill="#FF3B22"/>
<path d="M182 192H168V206H182V192Z" fill="#FF3B22"/>
<path d="M206 192H192V206H206V192Z" fill="#FF3B22"/>
<path d="M230 192H216V206H230V192Z" fill="#FF3B22"/>
<path d="M254 192H240V206H254V192Z" fill="#FF3B22"/>
<path d="M398 192H384V206H398V192Z" fill="#FF3B22"/>
<path d="M14 216H0V230H14V216Z" fill="#FF3B22"/>
<path d="M158 216H144V230H158V216Z" fill="#FF3B22"/>
<path d="M182 216H168V230H182V216Z" fill="#FF3B22"/>
<path d="M206 216H192V230H206V216Z" fill="#FF3B22"/>
<path d="M230 216H216V230H230V216Z" fill="#FF3B22"/>
<path d="M398 216H384V230H398V216Z" fill="#FF3B22"/>
<path d="M14 240H0V254H14V240Z" fill="#FF3B22"/>
<path d="M134 240H120V254H134V240Z" fill="#FF3B22"/>
<path d="M182 240H168V254H182V240Z" fill="#FF3B22"/>
<path d="M206 240H192V254H206V240Z" fill="#FF3B22"/>
<path d="M398 240H384V254H398V240Z" fill="#FF3B22"/>
<path d="M38 264H24V278H38V264Z" fill="#FF3B22"/>
<path d="M134 264H120V278H134V264Z" fill="#FF3B22"/>
<path d="M158 264H144V278H158V264Z" fill="#FF3B22"/>
<path d="M374 264H360V278H374V264Z" fill="#FF3B22"/>
<path d="M38 288H24V302H38V288Z" fill="#FF3B22"/>
<path d="M110 288H96V302H110V288Z" fill="#FF3B22"/>
<path d="M374 288H360V302H374V288Z" fill="#FF3B22"/>
<path d="M62 312H48V326H62V312Z" fill="#FF3B22"/>
<path d="M350 312H336V326H350V312Z" fill="#FF3B22"/>
<path d="M86 336H72V350H86V336Z" fill="#FF3B22"/>
<path d="M326 336H312V350H326V336Z" fill="#FF3B22"/>
<path d="M110 360H96V374H110V360Z" fill="#FF3B22"/>
<path d="M134 360H120V374H134V360Z" fill="#FF3B22"/>
<path d="M278 360H264V374H278V360Z" fill="#FF3B22"/>
<path d="M302 360H288V374H302V360Z" fill="#FF3B22"/>
<path d="M158 384H144V398H158V384Z" fill="#FF3B22"/>
<path d="M182 384H168V398H182V384Z" fill="#FF3B22"/>
<path d="M206 384H192V398H206V384Z" fill="#FF3B22"/>
<path d="M230 384H216V398H230V384Z" fill="#FF3B22"/>
<path d="M254 384H240V398H254V384Z" fill="#FF3B22"/>
</svg>
