<svg width="350" height="398" viewBox="0 0 350 398" fill="none" xmlns="http://www.w3.org/2000/svg">
<path d="M110 0H96V14H110V0Z" fill="#FF3B22"/>
<path d="M134 0H120V14H134V0Z" fill="#FF3B22"/>
<path d="M158 0H144V14H158V0Z" fill="#FF3B22"/>
<path d="M182 0H168V14H182V0Z" fill="#FF3B22"/>
<path d="M206 0H192V14H206V0Z" fill="#FF3B22"/>
<path d="M230 0H216V14H230V0Z" fill="#FF3B22"/>
<path d="M254 0H240V14H254V0Z" fill="#FF3B22"/>
<path d="M38 24H24V38H38V24Z" fill="#FF3B22"/>
<path d="M62 24H48V38H62V24Z" fill="#FF3B22"/>
<path d="M86 24H72V38H86V24Z" fill="#FF3B22"/>
<path d="M110 24H96V38H110V24Z" fill="#FF3B22"/>
<path d="M134 24H120V38H134V24Z" fill="#FF3B22"/>
<path d="M158 24H144V38H158V24Z" fill="#FF3B22"/>
<path d="M182 24H168V38H182V24Z" fill="#FF3B22"/>
<path d="M206 24H192V38H206V24Z" fill="#FF3B22"/>
<path d="M230 24H216V38H230V24Z" fill="#FF3B22"/>
<path d="M254 24H240V38H254V24Z" fill="#FF3B22"/>
<path d="M278 24H264V38H278V24Z" fill="#FF3B22"/>
<path d="M302 24H288V38H302V24Z" fill="#FF3B22"/>
<path d="M326 24H312V38H326V24Z" fill="#FF3B22"/>
<path d="M14 48H0V62H14V48Z" fill="#FF3B22"/>
<path d="M350 48H336V62H350V48Z" fill="#FF3B22"/>
<path d="M14 72H0V86H14V72Z" fill="#FF3B22"/>
<path d="M350 72H336V86H350V72Z" fill="#FF3B22"/>
<path d="M14 96H0V110H14V96Z" fill="#FF3B22"/>
<path d="M350 96H336V110H350V96Z" fill="#FF3B22"/>
<path d="M14 120H0V134H14V120Z" fill="#FF3B22"/>
<path d="M278 120H264V134H278V120Z" fill="#FF3B22"/>
<path d="M350 120H336V134H350V120Z" fill="#FF3B22"/>
<path d="M14 144H0V158H14V144Z" fill="#FF3B22"/>
<path d="M254 144H240V158H254V144Z" fill="#FF3B22"/>
<path d="M350 144H336V158H350V144Z" fill="#FF3B22"/>
<path d="M14 168H0V182H14V168Z" fill="#FF3B22"/>
<path d="M230 168H216V182H230V168Z" fill="#FF3B22"/>
<path d="M350 168H336V182H350V168Z" fill="#FF3B22"/>
<path d="M14 192H0V206H14V192Z" fill="#FF3B22"/>
<path d="M110 192H96V206H110V192Z" fill="#FF3B22"/>
<path d="M206 192H192V206H206V192Z" fill="#FF3B22"/>
<path d="M350 192H336V206H350V192Z" fill="#FF3B22"/>
<path d="M14 216H0V230H14V216Z" fill="#FF3B22"/>
<path d="M134 216H120V230H134V216Z" fill="#FF3B22"/>
<path d="M182 216H168V230H182V216Z" fill="#FF3B22"/>
<path d="M350 216H336V230H350V216Z" fill="#FF3B22"/>
<path d="M38 240H24V254H38V240Z" fill="#FF3B22"/>
<path d="M158 240H144V254H158V240Z" fill="#FF3B22"/>
<path d="M326 240H312V254H326V240Z" fill="#FF3B22"/>
<path d="M38 264H24V278H38V264Z" fill="#FF3B22"/>
<path d="M326 264H312V278H326V264Z" fill="#FF3B22"/>
<path d="M62 288H48V302H62V288Z" fill="#FF3B22"/>
<path d="M302 288H288V302H302V288Z" fill="#FF3B22"/>
<path d="M86 312H72V326H86V312Z" fill="#FF3B22"/>
<path d="M278 312H264V326H278V312Z" fill="#FF3B22"/>
<path d="M110 336H96V350H110V336Z" fill="#FF3B22"/>
<path d="M254 336H240V350H254V336Z" fill="#FF3B22"/>
<path d="M134 360H120V374H134V360Z" fill="#FF3B22"/>
<path d="M158 360H144V374H158V360Z" fill="#FF3B22"/>
<path d="M206 360H192V374H206V360Z" fill="#FF3B22"/>
<path d="M230 360H216V374H230V360Z" fill="#FF3B22"/>
<path d="M182 384H168V398H182V384Z" fill="#FF3B22"/>
</svg>
