<svg width="212" height="172" viewBox="0 0 212 172" fill="none" xmlns="http://www.w3.org/2000/svg">
<path d="M120 172L132 172L132 160L120 160L120 172Z" fill="#FF3B22"/>
<path d="M140 152L152 152L152 140L140 140L140 152Z" fill="#FF3B22"/>
<path d="M120 152L132 152L132 140L120 140L120 152Z" fill="#FF3B22"/>
<path d="M160 132L172 132L172 120L160 120L160 132Z" fill="#FF3B22"/>
<path d="M140 132L152 132L152 120L140 120L140 132Z" fill="#FF3B22"/>
<path d="M120 132L132 132L132 120L120 120L120 132Z" fill="#FF3B22"/>
<path d="M180 112L192 112L192 100L180 100L180 112Z" fill="#FF3B22"/>
<path d="M160 112L172 112L172 100L160 100L160 112Z" fill="#FF3B22"/>
<path d="M140 112L152 112L152 100L140 100L140 112Z" fill="#FF3B22"/>
<path d="M120 112L132 112L132 100L120 100L120 112Z" fill="#FF3B22"/>
<path d="M100 112L112 112L112 100L100 100L100 112Z" fill="#FF3B22"/>
<path d="M80.0001 112L92.0001 112L92.0001 100L80.0001 100L80.0001 112Z" fill="#FF3B22"/>
<path d="M60.0001 112L72.0001 112L72.0001 100L60.0001 100L60.0001 112Z" fill="#FF3B22"/>
<path d="M40.0001 112L52.0001 112L52.0001 100L40.0001 100L40.0001 112Z" fill="#FF3B22"/>
<path d="M20.0001 112L32.0001 112L32.0001 100L20.0001 100L20.0001 112Z" fill="#FF3B22"/>
<path d="M0.000106812 112L12.0001 112L12.0001 100L0.000107861 100L0.000106812 112Z" fill="#FF3B22"/>
<path d="M200 92.0001L212 92.0001L212 80.0001L200 80.0001L200 92.0001Z" fill="#FF3B22"/>
<path d="M180 92.0001L192 92.0001L192 80.0001L180 80.0001L180 92.0001Z" fill="#FF3B22"/>
<path d="M160 92.0001L172 92.0001L172 80.0001L160 80.0001L160 92.0001Z" fill="#FF3B22"/>
<path d="M140 92.0001L152 92.0001L152 80.0001L140 80.0001L140 92.0001Z" fill="#FF3B22"/>
<path d="M120 92.0001L132 92.0001L132 80.0001L120 80.0001L120 92.0001Z" fill="#FF3B22"/>
<path d="M100 92.0001L112 92.0001L112 80.0001L100 80.0001L100 92.0001Z" fill="#FF3B22"/>
<path d="M80.0001 92.0001L92.0001 92.0001L92.0001 80.0001L80.0001 80.0001L80.0001 92.0001Z" fill="#FF3B22"/>
<path d="M60.0001 92.0001L72.0001 92.0001L72.0001 80.0001L60.0001 80.0001L60.0001 92.0001Z" fill="#FF3B22"/>
<path d="M40.0001 92.0001L52.0001 92.0001L52.0001 80.0001L40.0001 80.0001L40.0001 92.0001Z" fill="#FF3B22"/>
<path d="M20.0001 92.0001L32.0001 92.0001L32.0001 80.0001L20.0001 80.0001L20.0001 92.0001Z" fill="#FF3B22"/>
<path d="M0.000106812 92.0001L12.0001 92.0001L12.0001 80.0001L0.000107861 80.0001L0.000106812 92.0001Z" fill="#FF3B22"/>
<path d="M180 72.0001L192 72.0001L192 60.0001L180 60.0001L180 72.0001Z" fill="#FF3B22"/>
<path d="M160 72.0001L172 72.0001L172 60.0001L160 60.0001L160 72.0001Z" fill="#FF3B22"/>
<path d="M140 72.0001L152 72.0001L152 60.0001L140 60.0001L140 72.0001Z" fill="#FF3B22"/>
<path d="M120 72.0001L132 72.0001L132 60.0001L120 60.0001L120 72.0001Z" fill="#FF3B22"/>
<path d="M100 72.0001L112 72.0001L112 60.0001L100 60.0001L100 72.0001Z" fill="#FF3B22"/>
<path d="M80.0001 72.0001L92.0001 72.0001L92.0001 60.0001L80.0001 60.0001L80.0001 72.0001Z" fill="#FF3B22"/>
<path d="M60.0001 72.0001L72.0001 72.0001L72.0001 60.0001L60.0001 60.0001L60.0001 72.0001Z" fill="#FF3B22"/>
<path d="M40.0001 72.0001L52.0001 72.0001L52.0001 60.0001L40.0001 60.0001L40.0001 72.0001Z" fill="#FF3B22"/>
<path d="M20.0001 72.0001L32.0001 72.0001L32.0001 60.0001L20.0001 60.0001L20.0001 72.0001Z" fill="#FF3B22"/>
<path d="M0.000106812 72.0001L12.0001 72.0001L12.0001 60.0001L0.000107861 60.0001L0.000106812 72.0001Z" fill="#FF3B22"/>
<path d="M160 52.0001L172 52.0001L172 40.0001L160 40.0001L160 52.0001Z" fill="#FF3B22"/>
<path d="M140 52.0001L152 52.0001L152 40.0001L140 40.0001L140 52.0001Z" fill="#FF3B22"/>
<path d="M120 52.0001L132 52.0001L132 40.0001L120 40.0001L120 52.0001Z" fill="#FF3B22"/>
<path d="M140 32.0001L152 32.0001L152 20.0001L140 20.0001L140 32.0001Z" fill="#FF3B22"/>
<path d="M120 32.0001L132 32.0001L132 20.0001L120 20.0001L120 32.0001Z" fill="#FF3B22"/>
<path d="M120 12.0001L132 12.0001L132 0.000140604L120 0.000139555L120 12.0001Z" fill="#FF3B22"/>
</svg>
