<svg width="212" height="172" viewBox="0 0 212 172" fill="none" xmlns="http://www.w3.org/2000/svg">
<path d="M92 0H80V12H92V0Z" fill="#FF3B22"/>
<path d="M72 20H60V32H72V20Z" fill="#FF3B22"/>
<path d="M92 20H80V32H92V20Z" fill="#FF3B22"/>
<path d="M52 40H40V52H52V40Z" fill="#FF3B22"/>
<path d="M72 40H60V52H72V40Z" fill="#FF3B22"/>
<path d="M92 40H80V52H92V40Z" fill="#FF3B22"/>
<path d="M32 60H20V72H32V60Z" fill="#FF3B22"/>
<path d="M52 60H40V72H52V60Z" fill="#FF3B22"/>
<path d="M72 60H60V72H72V60Z" fill="#FF3B22"/>
<path d="M92 60H80V72H92V60Z" fill="#FF3B22"/>
<path d="M112 60H100V72H112V60Z" fill="#FF3B22"/>
<path d="M132 60H120V72H132V60Z" fill="#FF3B22"/>
<path d="M152 60H140V72H152V60Z" fill="#FF3B22"/>
<path d="M172 60H160V72H172V60Z" fill="#FF3B22"/>
<path d="M192 60H180V72H192V60Z" fill="#FF3B22"/>
<path d="M212 60H200V72H212V60Z" fill="#FF3B22"/>
<path d="M12 80H0V92H12V80Z" fill="#FF3B22"/>
<path d="M32 80H20V92H32V80Z" fill="#FF3B22"/>
<path d="M52 80H40V92H52V80Z" fill="#FF3B22"/>
<path d="M72 80H60V92H72V80Z" fill="#FF3B22"/>
<path d="M92 80H80V92H92V80Z" fill="#FF3B22"/>
<path d="M112 80H100V92H112V80Z" fill="#FF3B22"/>
<path d="M132 80H120V92H132V80Z" fill="#FF3B22"/>
<path d="M152 80H140V92H152V80Z" fill="#FF3B22"/>
<path d="M172 80H160V92H172V80Z" fill="#FF3B22"/>
<path d="M192 80H180V92H192V80Z" fill="#FF3B22"/>
<path d="M212 80H200V92H212V80Z" fill="#FF3B22"/>
<path d="M32 100H20V112H32V100Z" fill="#FF3B22"/>
<path d="M52 100H40V112H52V100Z" fill="#FF3B22"/>
<path d="M72 100H60V112H72V100Z" fill="#FF3B22"/>
<path d="M92 100H80V112H92V100Z" fill="#FF3B22"/>
<path d="M112 100H100V112H112V100Z" fill="#FF3B22"/>
<path d="M132 100H120V112H132V100Z" fill="#FF3B22"/>
<path d="M152 100H140V112H152V100Z" fill="#FF3B22"/>
<path d="M172 100H160V112H172V100Z" fill="#FF3B22"/>
<path d="M192 100H180V112H192V100Z" fill="#FF3B22"/>
<path d="M212 100H200V112H212V100Z" fill="#FF3B22"/>
<path d="M52 120H40V132H52V120Z" fill="#FF3B22"/>
<path d="M72 120H60V132H72V120Z" fill="#FF3B22"/>
<path d="M92 120H80V132H92V120Z" fill="#FF3B22"/>
<path d="M72 140H60V152H72V140Z" fill="#FF3B22"/>
<path d="M92 140H80V152H92V140Z" fill="#FF3B22"/>
<path d="M92 160H80V172H92V160Z" fill="#FF3B22"/>
</svg>
