<svg width="374" height="374" viewBox="0 0 374 374" fill="none" xmlns="http://www.w3.org/2000/svg">
<path d="M110 0H96V14H110V0Z" fill="#FF3B22"/>
<path d="M134 0H120V14H134V0Z" fill="#FF3B22"/>
<path d="M158 0H144V14H158V0Z" fill="#FF3B22"/>
<path d="M182 0H168V14H182V0Z" fill="#FF3B22"/>
<path d="M206 0H192V14H206V0Z" fill="#FF3B22"/>
<path d="M14 24H0V38H14V24Z" fill="#FF3B22"/>
<path d="M38 24H24V38H38V24Z" fill="#FF3B22"/>
<path d="M62 24H48V38H62V24Z" fill="#FF3B22"/>
<path d="M86 24H72V38H86V24Z" fill="#FF3B22"/>
<path d="M134 24H120V38H134V24Z" fill="#FF3B22"/>
<path d="M230 24H216V38H230V24Z" fill="#FF3B22"/>
<path d="M254 24H240V38H254V24Z" fill="#FF3B22"/>
<path d="M350 24H336V38H350V24Z" fill="#FF3B22"/>
<path d="M374 24H360V38H374V24Z" fill="#FF3B22"/>
<path d="M14 48H0V62H14V48Z" fill="#FF3B22"/>
<path d="M134 48H120V62H134V48Z" fill="#FF3B22"/>
<path d="M254 48H240V62H254V48Z" fill="#FF3B22"/>
<path d="M278 48H264V62H278V48Z" fill="#FF3B22"/>
<path d="M302 48H288V62H302V48Z" fill="#FF3B22"/>
<path d="M326 48H312V62H326V48Z" fill="#FF3B22"/>
<path d="M374 48H360V62H374V48Z" fill="#FF3B22"/>
<path d="M14 72H0V86H14V72Z" fill="#FF3B22"/>
<path d="M134 72H120V86H134V72Z" fill="#FF3B22"/>
<path d="M254 72H240V86H254V72Z" fill="#FF3B22"/>
<path d="M374 72H360V86H374V72Z" fill="#FF3B22"/>
<path d="M14 96H0V110H14V96Z" fill="#FF3B22"/>
<path d="M134 96H120V110H134V96Z" fill="#FF3B22"/>
<path d="M254 96H240V110H254V96Z" fill="#FF3B22"/>
<path d="M374 96H360V110H374V96Z" fill="#FF3B22"/>
<path d="M14 120H0V134H14V120Z" fill="#FF3B22"/>
<path d="M134 120H120V134H134V120Z" fill="#FF3B22"/>
<path d="M254 120H240V134H254V120Z" fill="#FF3B22"/>
<path d="M374 120H360V134H374V120Z" fill="#FF3B22"/>
<path d="M14 144H0V158H14V144Z" fill="#FF3B22"/>
<path d="M134 144H120V158H134V144Z" fill="#FF3B22"/>
<path d="M254 144H240V158H254V144Z" fill="#FF3B22"/>
<path d="M374 144H360V158H374V144Z" fill="#FF3B22"/>
<path d="M14 168H0V182H14V168Z" fill="#FF3B22"/>
<path d="M134 168H120V182H134V168Z" fill="#FF3B22"/>
<path d="M254 168H240V182H254V168Z" fill="#FF3B22"/>
<path d="M374 168H360V182H374V168Z" fill="#FF3B22"/>
<path d="M14 192H0V206H14V192Z" fill="#FF3B22"/>
<path d="M134 192H120V206H134V192Z" fill="#FF3B22"/>
<path d="M254 192H240V206H254V192Z" fill="#FF3B22"/>
<path d="M374 192H360V206H374V192Z" fill="#FF3B22"/>
<path d="M14 216H0V230H14V216Z" fill="#FF3B22"/>
<path d="M134 216H120V230H134V216Z" fill="#FF3B22"/>
<path d="M254 216H240V230H254V216Z" fill="#FF3B22"/>
<path d="M374 216H360V230H374V216Z" fill="#FF3B22"/>
<path d="M14 240H0V254H14V240Z" fill="#FF3B22"/>
<path d="M134 240H120V254H134V240Z" fill="#FF3B22"/>
<path d="M254 240H240V254H254V240Z" fill="#FF3B22"/>
<path d="M374 240H360V254H374V240Z" fill="#FF3B22"/>
<path d="M14 264H0V278H14V264Z" fill="#FF3B22"/>
<path d="M134 264H120V278H134V264Z" fill="#FF3B22"/>
<path d="M254 264H240V278H254V264Z" fill="#FF3B22"/>
<path d="M374 264H360V278H374V264Z" fill="#FF3B22"/>
<path d="M14 288H0V302H14V288Z" fill="#FF3B22"/>
<path d="M134 288H120V302H134V288Z" fill="#FF3B22"/>
<path d="M254 288H240V302H254V288Z" fill="#FF3B22"/>
<path d="M374 288H360V302H374V288Z" fill="#FF3B22"/>
<path d="M14 312H0V326H14V312Z" fill="#FF3B22"/>
<path d="M134 312H120V326H134V312Z" fill="#FF3B22"/>
<path d="M158 312H144V326H158V312Z" fill="#FF3B22"/>
<path d="M182 312H168V326H182V312Z" fill="#FF3B22"/>
<path d="M206 312H192V326H206V312Z" fill="#FF3B22"/>
<path d="M254 312H240V326H254V312Z" fill="#FF3B22"/>
<path d="M374 312H360V326H374V312Z" fill="#FF3B22"/>
<path d="M14 336H0V350H14V336Z" fill="#FF3B22"/>
<path d="M38 336H24V350H38V336Z" fill="#FF3B22"/>
<path d="M62 336H48V350H62V336Z" fill="#FF3B22"/>
<path d="M86 336H72V350H86V336Z" fill="#FF3B22"/>
<path d="M110 336H96V350H110V336Z" fill="#FF3B22"/>
<path d="M230 336H216V350H230V336Z" fill="#FF3B22"/>
<path d="M254 336H240V350H254V336Z" fill="#FF3B22"/>
<path d="M278 336H264V350H278V336Z" fill="#FF3B22"/>
<path d="M350 336H336V350H350V336Z" fill="#FF3B22"/>
<path d="M374 336H360V350H374V336Z" fill="#FF3B22"/>
<path d="M302 360H288V374H302V360Z" fill="#FF3B22"/>
<path d="M326 360H312V374H326V360Z" fill="#FF3B22"/>
</svg>
