<svg width="326" height="374" viewBox="0 0 326 374" fill="none" xmlns="http://www.w3.org/2000/svg">
<path d="M14 0H0V14H14V0Z" fill="#FF3B22"/>
<path d="M38 0H24V14H38V0Z" fill="#FF3B22"/>
<path d="M62 0H48V14H62V0Z" fill="#FF3B22"/>
<path d="M86 0H72V14H86V0Z" fill="#FF3B22"/>
<path d="M110 0H96V14H110V0Z" fill="#FF3B22"/>
<path d="M134 0H120V14H134V0Z" fill="#FF3B22"/>
<path d="M158 0H144V14H158V0Z" fill="#FF3B22"/>
<path d="M182 0H168V14H182V0Z" fill="#FF3B22"/>
<path d="M206 0H192V14H206V0Z" fill="#FF3B22"/>
<path d="M230 0H216V14H230V0Z" fill="#FF3B22"/>
<path d="M14 24H0V38H14V24Z" fill="#FF3B22"/>
<path d="M230 24H216V38H230V24Z" fill="#FF3B22"/>
<path d="M254 24H240V38H254V24Z" fill="#FF3B22"/>
<path d="M14 48H0V62H14V48Z" fill="#FF3B22"/>
<path d="M230 48H216V62H230V48Z" fill="#FF3B22"/>
<path d="M278 48H264V62H278V48Z" fill="#FF3B22"/>
<path d="M14 72H0V86H14V72Z" fill="#FF3B22"/>
<path d="M230 72H216V86H230V72Z" fill="#FF3B22"/>
<path d="M302 72H288V86H302V72Z" fill="#FF3B22"/>
<path d="M14 96H0V110H14V96Z" fill="#FF3B22"/>
<path d="M230 96H216V110H230V96Z" fill="#FF3B22"/>
<path d="M254 96H240V110H254V96Z" fill="#FF3B22"/>
<path d="M278 96H264V110H278V96Z" fill="#FF3B22"/>
<path d="M302 96H288V110H302V96Z" fill="#FF3B22"/>
<path d="M326 96H312V110H326V96Z" fill="#FF3B22"/>
<path d="M14 120H0V134H14V120Z" fill="#FF3B22"/>
<path d="M326 120H312V134H326V120Z" fill="#FF3B22"/>
<path d="M14 144H0V158H14V144Z" fill="#FF3B22"/>
<path d="M86 144H72V158H86V144Z" fill="#FF3B22"/>
<path d="M110 144H96V158H110V144Z" fill="#FF3B22"/>
<path d="M158 144H144V158H158V144Z" fill="#FF3B22"/>
<path d="M182 144H168V158H182V144Z" fill="#FF3B22"/>
<path d="M206 144H192V158H206V144Z" fill="#FF3B22"/>
<path d="M230 144H216V158H230V144Z" fill="#FF3B22"/>
<path d="M254 144H240V158H254V144Z" fill="#FF3B22"/>
<path d="M278 144H264V158H278V144Z" fill="#FF3B22"/>
<path d="M326 144H312V158H326V144Z" fill="#FF3B22"/>
<path d="M14 168H0V182H14V168Z" fill="#FF3B22"/>
<path d="M326 168H312V182H326V168Z" fill="#FF3B22"/>
<path d="M14 192H0V206H14V192Z" fill="#FF3B22"/>
<path d="M326 192H312V206H326V192Z" fill="#FF3B22"/>
<path d="M14 216H0V230H14V216Z" fill="#FF3B22"/>
<path d="M86 216H72V230H86V216Z" fill="#FF3B22"/>
<path d="M110 216H96V230H110V216Z" fill="#FF3B22"/>
<path d="M158 216H144V230H158V216Z" fill="#FF3B22"/>
<path d="M182 216H168V230H182V216Z" fill="#FF3B22"/>
<path d="M206 216H192V230H206V216Z" fill="#FF3B22"/>
<path d="M230 216H216V230H230V216Z" fill="#FF3B22"/>
<path d="M254 216H240V230H254V216Z" fill="#FF3B22"/>
<path d="M278 216H264V230H278V216Z" fill="#FF3B22"/>
<path d="M326 216H312V230H326V216Z" fill="#FF3B22"/>
<path d="M14 240H0V254H14V240Z" fill="#FF3B22"/>
<path d="M326 240H312V254H326V240Z" fill="#FF3B22"/>
<path d="M14 264H0V278H14V264Z" fill="#FF3B22"/>
<path d="M326 264H312V278H326V264Z" fill="#FF3B22"/>
<path d="M14 288H0V302H14V288Z" fill="#FF3B22"/>
<path d="M86 288H72V302H86V288Z" fill="#FF3B22"/>
<path d="M110 288H96V302H110V288Z" fill="#FF3B22"/>
<path d="M158 288H144V302H158V288Z" fill="#FF3B22"/>
<path d="M182 288H168V302H182V288Z" fill="#FF3B22"/>
<path d="M206 288H192V302H206V288Z" fill="#FF3B22"/>
<path d="M230 288H216V302H230V288Z" fill="#FF3B22"/>
<path d="M254 288H240V302H254V288Z" fill="#FF3B22"/>
<path d="M278 288H264V302H278V288Z" fill="#FF3B22"/>
<path d="M326 288H312V302H326V288Z" fill="#FF3B22"/>
<path d="M14 312H0V326H14V312Z" fill="#FF3B22"/>
<path d="M326 312H312V326H326V312Z" fill="#FF3B22"/>
<path d="M14 336H0V350H14V336Z" fill="#FF3B22"/>
<path d="M326 336H312V350H326V336Z" fill="#FF3B22"/>
<path d="M14 360H0V374H14V360Z" fill="#FF3B22"/>
<path d="M38 360H24V374H38V360Z" fill="#FF3B22"/>
<path d="M62 360H48V374H62V360Z" fill="#FF3B22"/>
<path d="M86 360H72V374H86V360Z" fill="#FF3B22"/>
<path d="M110 360H96V374H110V360Z" fill="#FF3B22"/>
<path d="M134 360H120V374H134V360Z" fill="#FF3B22"/>
<path d="M158 360H144V374H158V360Z" fill="#FF3B22"/>
<path d="M182 360H168V374H182V360Z" fill="#FF3B22"/>
<path d="M206 360H192V374H206V360Z" fill="#FF3B22"/>
<path d="M230 360H216V374H230V360Z" fill="#FF3B22"/>
<path d="M254 360H240V374H254V360Z" fill="#FF3B22"/>
<path d="M278 360H264V374H278V360Z" fill="#FF3B22"/>
<path d="M302 360H288V374H302V360Z" fill="#FF3B22"/>
<path d="M326 360H312V374H326V360Z" fill="#FF3B22"/>
</svg>
