<svg width="584" height="166" viewBox="0 0 584 166" fill="none" xmlns="http://www.w3.org/2000/svg">
<path fill-rule="evenodd" clip-rule="evenodd" d="M350.205 3.51951C377.525 3.50147 420.579 -0.250207 432.659 31.1123C437.424 43.4783 436.375 61.9301 427.755 72.4746C416.63 86.0846 400.139 89.1394 383.684 91.1494C398.684 111.049 416.964 140.819 438.219 154.939C443.989 158.774 448.224 152.979 450.554 147.859C457.384 132.859 463.415 117.37 469.83 102.1L510.8 3.87498C513.919 3.6435 517.099 3.74861 520.234 3.78611C533.809 35.5836 547.049 70.5996 559.939 102.85C567.549 121.969 576.645 141.794 583.545 161.039C573.04 161.124 561.97 161.38 551.505 161.1C544.735 145.205 538.429 128.429 531.779 112.359C500.069 112.579 476.909 134.025 456.114 154.52C448.929 161.604 435.11 163.585 425.255 162.47C387.8 158.245 369.409 117.085 348.559 91L337.814 91.0293C337.379 114.044 337.744 137.954 337.684 161.064C327.859 161.264 317.514 161.07 307.654 161.045L307.63 3.57615C321.605 3.22966 335.86 3.52901 350.205 3.51951ZM503.66 41.7109C494.245 62.0003 484.485 86.3097 475.865 107.055C483.585 106.72 491.295 105.695 498.8 105.37C508.54 104.535 518.785 104.465 528.55 104.515C525.619 96.9789 505.745 44.1744 503.66 41.7109ZM392.284 18.0762C379.594 7.78584 353.449 10.7502 337.639 10.8857C337.659 34.9767 337.404 59.7754 337.764 83.8193C355.014 83.8293 383.89 87.6797 396.33 75.0947C408.805 59.5617 408.024 30.8416 392.284 18.0762Z" fill="black"/>
<path fill-rule="evenodd" clip-rule="evenodd" d="M204.33 0.204797C249.912 -2.9827 289.435 31.4158 292.565 76.9997C295.695 122.585 261.246 162.065 215.657 165.14C170.148 168.205 130.754 133.835 127.629 88.3298C124.504 42.8229 158.829 3.38634 204.33 0.204797ZM223.834 20.3191C212.981 13.8006 204.68 11.6741 192.49 12.6091C157.891 18.3896 152.845 56.7023 157.289 85.6648C162.157 117.39 190.857 158.82 227.505 152.37C238.281 149.99 248.62 144.069 254.171 134.474C275.706 97.2544 260.498 42.3396 223.834 20.3191Z" fill="black"/>
<path d="M116.297 3.66127C119.826 3.48627 123.585 3.64179 127.136 3.72179C121.688 9.79179 114.674 15.6283 108.86 21.4608C92.9289 37.4398 74.5599 53.1998 59.0534 69.3928C63.6484 75.2698 69.3734 81.5998 74.2779 87.3248L101.84 119.455C104.947 122.665 109.897 128.845 113.052 132.495L137.801 161.01C125.672 161.24 112.362 161.465 100.285 161.21C86.5054 146.67 72.9039 129.4 59.5769 114.255C52.4374 106.145 45.6433 97.3648 38.0783 89.5998L30.4494 96.3448C30.5584 117.965 30.5104 139.58 30.3049 161.2C20.2734 161.25 10.2419 161.2 0.211357 161.05C0.182357 108.8 -0.294142 55.8038 0.286858 3.62679C10.3509 3.51579 20.4154 3.54127 30.4789 3.70327C30.5304 30.0998 30.8609 58.3733 30.3584 84.6598C36.4324 80.6748 48.0353 69.0743 53.8218 63.7118C74.9458 44.0083 95.7734 23.9888 116.297 3.66127Z" fill="black"/>
</svg>
