<svg width="931" height="307" viewBox="0 0 931 307" fill="none" xmlns="http://www.w3.org/2000/svg">
<path d="M743.286 41.5535C745.076 41.7995 746.541 42.0925 747.891 43.358C758.356 53.1645 725.051 102.275 717.666 111.796C713.161 117.607 708.271 123.256 703.346 128.713C699.441 133.042 694.976 137.283 691.976 142.315C687.386 150.01 684.526 159.915 684.436 168.865C685.176 170.42 686.131 171.9 687.001 173.385C703.706 169.95 718.861 148.245 726.881 134.279C728.776 130.975 731.926 123.136 734.876 121.181C736.026 120.422 736.471 120.618 737.671 120.95C739.026 122.229 739.776 123.428 739.781 125.343C739.806 135.459 723.621 151.6 724.816 163.58C724.971 165.105 725.401 167.235 726.736 168.155C728.086 169.09 729.686 169.145 731.231 168.815C740.776 166.775 754.971 150.34 759.596 142.208C762.056 137.882 763.156 132.924 765.876 128.633C766.761 127.237 767.706 125.6 769.421 125.212C770.891 125.618 771.116 125.681 772.136 126.791C772.761 128.763 772.721 130.313 772.236 132.331C771.276 136.297 769.191 140.26 767.596 144.01C765.156 149.735 762.896 155.415 761.166 161.405C769.316 154.71 788.731 125.877 793.936 124.111C795.166 124.144 795.966 124.276 796.996 125.003C806.916 131.981 789.261 155.735 792.501 165.76C792.731 166.46 792.966 167.15 793.661 167.48C799.066 170.07 810.921 157.11 814.076 153.49C822.396 143.945 832.271 126.773 845.286 123.476C848.711 122.608 852.406 122.948 855.421 124.877C857.061 125.927 859.026 127.855 859.196 129.928C859.301 131.268 858.811 131.621 857.946 132.463C856.036 132.89 855.371 132.695 853.646 131.833C852.866 131.442 852.076 131.003 851.256 130.698C849.506 130.053 847.736 130.466 846.096 131.207C836.061 135.758 824.641 149.325 821.006 159.61C819.966 162.56 819.436 165.315 820.806 168.21C821.511 168.7 821.811 169.075 822.691 169.14C834.551 170 853.966 144.81 862.366 137.004C864.181 135.317 865.661 134.057 868.241 134.152C869.231 134.729 869.616 134.942 870.166 136.001C873.541 142.455 865.116 163.375 862.831 170.575C867.341 167.325 872.431 164.775 877.186 161.895C883.571 158.015 889.836 153.915 896.191 149.975C899.091 148.17 902.076 146.425 904.886 144.485C907.016 143.015 908.971 141.198 911.271 139.987C912.746 139.211 913.926 138.569 915.581 138.732C916.496 139.621 916.611 139.708 916.866 140.946C914.261 149.245 868.966 174.39 859.301 180.295C856.396 186.76 854.071 193.555 851.356 200.115C841.336 224.325 830.726 248.96 814.871 270.005C808.661 278.24 798.886 290.405 787.861 291.685C783.896 292.145 780.026 291.155 776.941 288.575C773.546 285.74 771.591 281.54 771.226 277.17C769.861 260.98 782.336 242.635 792.106 230.83C803.121 218.375 815.141 207.495 827.721 196.665C834.236 191.06 847.606 183.19 851.936 176.575C857.226 168.495 859.491 156.78 861.971 147.48C852.356 156.51 839.146 172.735 825.736 175.36C823.021 175.89 820.231 175.62 817.931 173.985C814.331 171.425 813.531 167.42 812.811 163.365C810.916 165.49 808.961 167.44 806.721 169.2C801.381 173.405 797.396 174.625 790.731 173.83C789.986 173.06 789.271 172.265 788.621 171.41C780.916 161.305 790.446 145.36 791.921 134.64L792.016 133.91C786.766 141.219 768.576 167.35 761.326 168.765C760.021 169.02 758.706 168.665 757.686 167.81C755.111 165.645 754.896 161.83 754.586 158.73C748.861 166.53 739.356 173.54 730.001 176.025C725.661 175.135 723.106 173.755 719.881 170.805C717.841 165.95 718.166 161.355 718.751 156.29C713.751 164.155 705.801 173.035 697.486 177.45C693.701 179.46 689.221 180.385 685.091 178.885C682.186 177.83 679.951 175.66 678.756 172.82C675.116 164.18 679.916 151.28 683.166 143.175C679.851 144.08 676.411 145.2 672.971 145.46C668.301 145.815 664.936 144.395 661.446 141.378C657.776 147.575 653.941 153.815 649.566 159.54C645.896 164.35 639.996 172.35 633.476 172.935C630.701 173.185 628.886 171.395 626.966 169.68C624.996 163.885 625.521 159.51 626.861 153.67C624.286 154.615 616.601 166.045 613.956 168.82C611.831 171.05 608.756 174.24 605.386 173.935C603.391 173.755 601.666 172.255 600.536 170.7C597.016 165.86 600.011 155.34 600.951 149.91C599.991 150.375 599.016 150.855 598.011 151.22C593.441 152.885 589.726 151.785 585.551 149.805C585.116 150.985 584.636 152.15 584.126 153.295C580.631 160.95 573.136 170.555 564.966 173.42C562.176 174.4 558.686 174.695 555.971 173.315C553.846 172.24 552.336 170.345 551.646 168.075C549.816 162.08 551.936 155.095 554.681 149.67C559.961 139.231 567.546 130.353 578.806 126.605C593.891 131.757 585.136 141.289 590.926 146.2C592.196 146.595 593.181 146.79 594.516 146.59C605.031 145 606.686 133.186 611.516 127.106C612.536 125.818 613.391 125.16 615.076 124.95C616.231 125.525 617.096 125.985 617.611 127.261C619.401 131.732 613.556 140.421 611.711 144.61C609.811 148.925 603.886 161.295 605.521 165.515L606.421 165.755C616.271 163.165 627.761 136.912 633.936 133.833C635.176 133.216 635.821 133.369 637.086 133.764C638.266 134.977 638.956 135.963 638.896 137.728C638.821 139.807 637.546 142.652 636.851 144.625C634.081 152.5 631.821 158.98 631.986 167.465C642.206 161.24 650.491 148.4 655.806 137.982C657.666 134.333 658.916 129.751 661.366 126.52C662.206 125.41 662.646 125.269 663.991 125.138C665.211 125.769 665.966 126.46 666.466 127.754C667.541 130.546 664.916 134.977 663.741 137.546C668.196 138.473 672.521 139.635 677.086 138.579C679.386 138.046 682.656 136.698 684.041 134.681C687.156 130.145 690.051 119.599 692.446 113.989C696.746 103.915 701.956 93.8835 707.536 84.455C713.776 73.9095 731.571 44.5615 743.286 41.5535ZM846.751 189.955C825.066 208.75 781.336 241.99 778.871 272.48C778.561 276.32 778.881 280.235 781.246 283.41C783.496 284.71 785.256 285.395 787.861 284.735C800.226 281.62 815.816 257.41 821.801 246.555C825.236 240.325 847.776 193.8 846.751 189.955ZM695.476 127.555C700.321 121.478 705.851 116.064 710.551 109.844C717.751 100.319 743.441 60.937 742.901 50.405C742.881 49.976 742.771 49.744 742.636 49.3495C726.941 62.269 708.776 95.866 700.241 114.423C698.701 117.778 695.696 123.131 695.356 126.71C695.311 127.155 695.351 127.16 695.476 127.555ZM560.876 168.025C569.001 163.995 576.691 156.45 579.746 147.765C580.716 144.995 581.861 139.974 580.506 137.189C580.061 136.272 579.221 135.737 578.246 135.469C578.081 135.422 577.906 135.397 577.736 135.362C568.786 140.345 560.846 151.53 558.221 161.41C557.751 163.18 557.191 165.435 558.231 167.09C558.596 167.67 559.036 167.92 559.716 168.045C560.036 168.1 560.546 168.05 560.876 168.025Z" fill="black"/>
<path d="M199.363 15.9045C201.324 16.447 203.068 17.1445 204.526 18.6245C206.058 20.18 206.537 22.0245 206.529 24.1635C206.465 40.925 179.644 102.49 172.344 122.204C165.465 140.876 159.481 159.865 154.411 179.11C151.989 188.57 149.974 198.01 148.218 207.615C147.351 212.355 146.952 217.335 145.799 221.995C145.444 223.43 144.984 224.745 143.825 225.72C143.163 226.275 142.566 226.28 141.72 226.175C140.535 226.02 139.165 224.94 138.639 223.925C136.784 220.355 139.86 209.66 140.653 205.64C147.736 169.715 159.222 135.413 172.453 101.331C182.31 75.9415 194.04 50.069 199.952 23.4185C193.126 29.303 187.21 36.323 181.194 43.0165C159.029 67.719 138.789 94.0825 120.651 121.877C116.891 127.689 113.318 133.62 109.939 139.661C107.065 144.8 104.432 150.175 101.079 155.015C99.7241 155.7 99.1696 155.88 97.5956 155.725C96.6901 155.275 96.0596 154.885 95.4851 154.05C86.9671 141.673 113.549 52.33 117.389 34.2125C117.881 31.6255 118.571 29.0625 119.187 26.5015C111.767 38.293 102.599 48.9705 95.1906 60.838C84.4771 78.0005 75.0791 95.64 65.7121 113.55C56.8071 130.268 48.2571 147.17 40.0681 164.25C36.9781 170.72 33.7896 177.175 30.9156 183.74C29.2626 187.52 28.1231 191.685 25.8946 195.175C25.1241 196.385 24.4176 197.055 23.1666 197.73C21.8316 197.695 20.9981 197.525 20.0346 196.495C19.1226 195.52 18.8336 194.51 18.8281 193.2C18.7936 185.21 74.5356 80.245 82.3336 67.232C89.2026 55.7685 106.823 27.4 115.828 19.336C117.151 18.1515 118.775 17.1015 120.639 17.402C123.294 17.83 124.703 20.55 125.895 22.6375C126.767 37.172 116.913 66.5105 113.103 81.4395C109.434 95.901 106.237 110.478 103.516 125.147C102.84 128.841 100.639 135.054 101.057 138.618C104.244 137.142 112.307 121.404 114.658 117.616C125.994 99.347 180.856 24.6575 198.85 16.1395C199.02 16.059 199.192 15.983 199.363 15.9045Z" fill="black"/>
<path d="M540.741 16.2014C540.926 16.1744 541.111 16.1419 541.301 16.1204C557.481 14.2579 579.771 16.9179 593.006 27.1189C599.491 32.1169 603.886 39.2899 604.851 47.4824C609.246 84.8249 545.126 122.056 515.746 134.325C507.621 137.718 499.046 140.775 490.591 143.2C486.526 144.365 482.111 144.915 478.156 146.36C477.101 146.745 476.476 147.125 475.766 148.03C475.481 149.315 475.641 149.295 476.696 150.15C479.186 152.165 482.501 153.645 485.236 155.33C489.556 157.995 493.771 160.9 497.951 163.77C514.541 175.17 530.071 188.085 546.421 199.8C549.461 201.975 559.391 207.035 560.526 210.02C560.801 210.745 560.381 211.295 560.121 211.97C559.396 212.61 558.746 213.285 557.746 213.465C555.211 213.915 551.891 211.865 549.786 210.575C539.926 204.525 530.816 197.005 521.616 190.005C505.596 177.82 489.211 165.475 471.841 155.29C464.246 165.635 456.586 181 451.949 193.05C450.758 196.145 447.75 208.31 445.987 210.17C445.044 211.165 444.483 210.96 443.271 210.815C441.753 209.76 440.893 208.7 440.417 206.875C438.12 198.075 460.336 159.14 465.576 150.63C459.311 147.47 450.227 146.07 445.3 143.1C444.391 141.915 444.205 141.33 444.1 139.844C444.403 139.106 444.424 138.651 445.138 138.201C449.527 135.437 462.906 142.137 468.156 143.285C468.371 143.335 468.591 143.375 468.806 143.42C473.186 136.802 476.196 129.433 479.541 122.265C484.306 111.8 489.286 101.432 494.476 91.1684C501.191 77.7084 519.731 40.1419 530.541 31.9039C531.881 33.0794 533.481 34.2229 534.216 35.8774C532.461 40.9794 522.406 54.8024 519.046 60.9289C505.196 86.5539 492.251 112.657 480.236 139.19C519.121 128.878 562.361 107.057 587.916 75.1329C593.411 68.2674 598.966 57.2564 597.776 48.2639C596.941 42.0094 593.041 36.6699 588.066 32.9694C571.921 20.9569 546.936 22.5034 528.131 25.2604C518.946 26.6074 509.656 28.3409 500.796 31.1499C476.431 38.8724 449.359 54.0599 434.155 74.8779C432.051 77.7584 429.792 81.1284 428.525 84.4769C427.167 88.0629 426.905 92.6894 424.596 95.7904C423.428 96.0964 422.931 95.9334 421.815 95.5109C420.737 94.5089 420.249 93.6529 420.047 92.1979C418.865 83.6669 425.792 73.3534 430.815 67.0974C449.336 44.0289 480.806 28.3254 509.176 21.2659C519.536 18.6879 530.136 17.3219 540.741 16.2014Z" fill="black"/>
<path d="M265.668 122.934C266.715 122.949 267.672 122.922 268.659 123.338C280.733 128.425 260.929 157.465 264.905 166.025C265.381 167.05 266.17 167.665 267.303 167.81C278.316 169.235 299.683 135.792 309.628 128.153C313.985 124.806 319.208 122.089 324.864 122.94C328.437 123.477 332.387 126.135 334.39 129.121C335.258 130.415 335.387 131.367 335.068 132.856C334.281 133.715 333.751 134.108 332.66 134.469C329.885 135.385 328.333 131.968 325.899 130.911C323.722 129.966 321.388 130.331 319.281 131.273C310.702 135.108 301.14 146.675 297.838 155.33C296.553 158.7 295.771 162.65 297.465 166.035C298.312 167.725 299.679 169.075 301.521 169.615C311.203 172.44 334.001 154.445 340.376 147.69C346.348 141.362 349.753 133.018 357.826 128.743C360.491 127.331 363.636 126.534 366.574 127.567C375.372 130.661 372.824 140.127 376.076 145.015C380.94 152.32 396.295 136.266 400.421 136.999C401.017 138.503 401.022 140.023 400.344 141.54C398.688 145.245 391.642 149.595 388.038 150.905C383.154 152.685 377.867 152.72 373.138 150.52C372.944 150.43 372.751 150.335 372.557 150.245C370.339 154.985 367.777 159.455 364.465 163.525C360.558 168.33 354.292 174.245 347.833 174.73C345.534 174.905 343.511 174.165 341.834 172.59C337.402 168.43 337.98 163.94 337.812 158.345C336.534 159.01 335.334 160.26 334.231 161.205C327.243 167.085 318.012 174.035 308.752 175.525C304.186 176.26 298.982 175.765 295.173 172.92C291.018 169.82 290.175 165.63 289.338 160.855C286.38 164.035 282.548 167.225 279.037 169.785C275.233 172.56 270.67 174.985 265.816 174.07C263.488 173.63 261.463 172.435 260.167 170.42C254.016 160.87 262.512 144.39 264.66 134.612L264.809 133.918C262.444 135.627 260.36 139.258 258.564 141.638C250.101 152.855 240.803 167.21 227.796 173.425C225.049 174.735 221.894 175.625 218.931 174.48C216.314 173.47 214.294 171.095 213.186 168.57C210.779 163.09 212.552 156.625 214.757 151.395C207.29 161.195 197.774 171.915 185.83 176.095C184.68 175.805 183.508 175.52 182.42 175.04C180.009 173.98 178.115 172.215 177.289 169.67C175.888 165.35 177.89 160.08 179.849 156.2C185.037 145.92 196.467 131.567 207.96 127.995C211.265 126.968 214.604 127.062 217.638 128.825C233.12 137.825 215.563 154.01 218.957 165.845C219.409 167.42 220.091 167.8 221.443 168.47C234.04 168.34 255.854 132.205 265.287 123.285C265.413 123.166 265.541 123.051 265.668 122.934ZM186.709 168.815C194.913 164.78 212.343 148.365 215.19 139.553C215.6 138.283 215.691 136.916 215.019 135.721C214.572 134.925 213.792 134.862 212.952 134.63C212.839 134.599 212.72 134.594 212.604 134.576C203.802 136.103 195.111 146.11 190.15 153.09C187.974 156.15 183.331 162.995 184.006 166.88C184.138 167.645 184.384 168.225 185.084 168.535C185.92 168.905 185.623 168.78 186.709 168.815ZM347.689 168.23C355.702 164.985 361.867 157.84 365.186 149.94C366.633 146.495 368.402 140.607 366.597 137.025C366.267 136.37 365.775 135.792 365.324 135.222L363.928 134.887C356.017 138.204 349.465 148.135 346.29 155.91C345.125 158.765 343.391 163.145 344.77 166.13C345.163 166.98 345.581 167.575 346.47 167.955C346.788 168.09 347.338 168.17 347.689 168.23Z" fill="black"/>
<path d="M750.603 99.7146C751.473 99.9421 752.173 100.258 752.993 100.633C753.813 101.809 754.164 102.22 754.139 103.724C754.099 106.251 751.718 108.868 749.993 110.466C749.428 110.209 748.524 109.869 748.029 109.451C747.064 108.637 746.524 107.524 746.574 106.253C746.669 103.635 748.873 101.431 750.603 99.7146Z" fill="black"/>
</svg>
