<svg width="618" height="141" viewBox="0 0 618 141" fill="none" xmlns="http://www.w3.org/2000/svg">
<path d="M0.918296 63.3171C1.7178 63.2431 2.51879 63.1806 3.32029 63.1301C7.30329 62.8801 20.8438 62.7696 24.2393 63.0261C33.8703 63.7536 100.022 61.5605 103.09 64.249C103.91 66.7845 103.664 69.1645 103.626 71.8585C81.8503 88.4195 59.1408 104.18 37.2373 120.61C35.7078 121.755 33.1663 123.525 32.7923 125.42C35.2723 126.815 50.2303 126.31 54.3983 126.295L88.3863 126.245L121.811 126.265C127.583 126.285 133.342 126.315 139.117 126.24C147.193 126.27 145.769 119.31 145.894 113.65C146.259 97.1095 144.979 79.7431 145.974 63.2871C150.139 63.0491 154.439 63.0031 158.611 63.0606C181.465 63.3776 204.626 62.4896 227.449 63.2111C227.547 66.5356 228.078 70.6511 227.482 73.9251C227.219 75.3751 226.872 75.8206 225.49 76.2536C221.592 77.4736 215.818 76.7585 211.698 76.7465C204.747 76.727 165.11 75.3145 161.61 78.012C160.618 78.777 160.404 80.6885 160.305 81.848C160.032 85.0595 159.76 90.5246 161.822 93.0346C166.264 95.1046 194.899 94.1945 201.447 94.1695C204.992 94.1646 215.429 93.4946 217.619 95.3896C218.741 98.8696 218.7 103.065 217.118 106.395C212.882 109.815 173.37 105.94 164.025 108.205C162.462 108.585 161.347 109.045 160.452 110.46C160.174 116.245 158.296 125.63 166.164 126.09C186.57 127.285 207.697 125.36 228.05 126.735C228.217 131.26 228.321 134.99 228.169 139.525C221.778 140.53 197.268 140.13 189.573 140.14L110.11 140.13L36.4408 140.19C29.5283 140.2 7.19728 140.635 1.24378 139.635C-0.506719 137.665 0.0707869 133.285 0.171287 130.595C3.93779 127.005 14.2433 119.92 18.6808 116.625C34.3253 105.015 50.4163 93.8646 65.7273 81.7871C67.3098 80.5391 68.2483 79.7366 68.4298 77.8576C63.0193 75.6241 11.3113 77.4196 0.569785 76.5516C0.422285 73.2876 -0.0522038 66.2506 0.918296 63.3171Z" fill="black"/>
<path d="M335.528 62.9105C339.543 62.595 343.583 62.672 347.583 63.141C347.963 66.8195 348.258 81.6505 348.028 85.2845C347.573 92.4245 349.293 136.624 347.393 139.124C344.223 141.044 340.088 140.274 336.258 140.069C330.928 136.404 325.648 131.514 320.463 127.524C303.073 114.129 286.214 98.6144 268.742 85.5095C267.753 96.5695 268.906 108.889 268.523 120.079C268.314 126.189 268.999 132.764 268.252 138.819C267.228 140.334 267.909 139.704 265.849 140.409C262.18 140.539 258.267 140.249 254.58 140.054C253.961 132.099 254.264 119.319 254.271 111.144C254.246 95.1645 254.313 79.1805 254.471 63.199C257.749 63.061 261.315 63.1605 264.619 63.192C269.937 67.3755 275.63 72.5375 280.927 76.948C292.417 86.5445 304.028 95.9945 315.758 105.299C321.688 110.019 327.508 114.909 333.758 119.189C334.308 101.169 333.333 82.7395 334.083 64.709C334.133 63.513 334.668 63.441 335.528 62.9105Z" fill="black"/>
<path d="M541.383 63.3045C541.898 70.8235 540.298 83.6196 541.943 90.1946C542.238 91.3596 542.513 92.4246 543.678 92.9746C548.268 95.1496 595.858 94.5645 601.108 93.0095C605.853 89.1595 600.818 69.8865 603.843 63.884C606.143 61.948 613.998 62.9245 617.123 63.1835C617.618 68.9825 618.078 135.775 617.018 139.14C615.418 140.305 615.823 139.94 613.598 140.215L603.433 140.105C602.943 133.045 604.683 115.875 602.258 110.41C601.788 109.35 601.233 108.67 600.138 108.235C597.343 107.115 546.633 107.285 543.763 108.82C538.973 111.38 543.388 133.135 541.123 139.015C538.248 140.54 534.288 141.25 531.113 140.3C529.563 139.835 528.503 138.975 527.843 137.485C527.323 136.315 527.073 65.949 527.933 63.975C528.288 63.167 529.018 63.1686 529.783 62.8836C534.243 62.8226 536.998 62.77 541.383 63.3045Z" fill="black"/>
<path d="M413.253 63.2803C418.618 63.0043 424.408 62.9424 429.778 63.0309C454.953 63.4459 480.513 62.4673 505.648 63.2803C505.823 65.2053 506.768 75.0774 504.668 75.9804C497.638 79.0029 472.253 74.1784 467.048 78.3294C465.013 82.2199 465.833 96.8949 465.878 101.93C465.908 106.615 466.838 134.9 464.793 139.73C464.178 141.185 454.528 140.38 451.568 140.115C450.128 120.54 452.943 98.6749 450.688 79.2304C449.963 73.0069 415.443 80.4818 412.913 74.8573C412.143 73.1453 412.283 65.0938 413.253 63.2803Z" fill="black"/>
<path d="M375.753 63.2855C380.403 63.065 383.918 63.0615 388.573 63.2165C389.698 75.344 388.563 92.2145 389.003 104.79C389.363 115 388.883 126.865 388.973 137.205C388.983 138.875 388.633 139.015 387.778 140.19C383.218 140.27 379.603 140.245 375.053 139.985C374.503 135.095 374.648 127.765 374.633 122.71L374.628 95.6245C374.658 85.8795 374.498 75.886 374.658 66.136C374.683 64.485 374.873 64.419 375.753 63.2855Z" fill="black"/>
<path d="M380.313 0C382.848 1.919 404.118 42.982 403.798 46.311C401.383 48.407 396.308 47.7425 393.008 47.666C389.193 43.6 386.193 38.5905 381.813 34.022C378.698 34.7365 372.243 44.3565 370.033 47.338C367.363 47.4915 359.573 48.388 358.053 46.1325C360.088 38.942 367.343 26.265 370.808 19.04C373.398 13.6475 377.488 4.7545 380.313 0Z" fill="black"/>
</svg>
